<svg xmlns="http://www.w3.org/2000/svg" xmlns:xlink="http://www.w3.org/1999/xlink" version="1.1" width="594.95999pt" height="841.92pt" viewBox="0 0 594.95999 841.92">
<defs>
<clipPath id="clip_35">
<path transform="matrix(.24,0,0,.24,0,0)" d="M0 0H2480V3509H0Z" fill-rule="evenodd"/>
</clipPath>
<clipPath id="clip_36">
<path transform="matrix(.24,0,0,.24,0,0)" d="M690.625 209.375H703.125V221.875H690.625Z" fill-rule="evenodd"/>
</clipPath>
<clipPath id="clip_37">
<path transform="matrix(.24,0,0,.24,0,0)" d="M0 0H2480V3509H0Z" fill-rule="evenodd"/>
</clipPath>
<clipPath id="clip_38">
<path transform="matrix(.24,0,0,.24,0,0)" d="M1018.75 525H1084.375V587.5H1018.75Z" fill-rule="evenodd"/>
</clipPath>
<clipPath id="clip_39">
<path transform="matrix(.24,0,0,.24,0,0)" d="M0 0H2480V3509H0Z" fill-rule="evenodd"/>
</clipPath>
<clipPath id="clip_40">
<path transform="matrix(.24,0,0,.24,0,0)" d="M1593.75 675H1628.125V706.25H1593.75Z" fill-rule="evenodd"/>
</clipPath>
<clipPath id="clip_41">
<path transform="matrix(.24,0,0,.24,0,0)" d="M0 0H2480V3509H0Z" fill-rule="evenodd"/>
</clipPath>
<clipPath id="clip_42">
<path transform="matrix(.24,0,0,.24,0,0)" d="M1050 975H1115.625V1034.375H1050Z" fill-rule="evenodd"/>
</clipPath>
<clipPath id="clip_43">
<path transform="matrix(.24,0,0,.24,0,0)" d="M0 0H2480V3509H0Z" fill-rule="evenodd"/>
</clipPath>
<clipPath id="clip_44">
<path transform="matrix(.24,0,0,.24,0,0)" d="M690.625 1256.25H703.125V1268.75H690.625Z" fill-rule="evenodd"/>
</clipPath>
<clipPath id="clip_45">
<path transform="matrix(.24,0,0,.24,0,0)" d="M0 0H2480V3509H0Z" fill-rule="evenodd"/>
</clipPath>
<clipPath id="clip_46">
<path transform="matrix(.24,0,0,.24,0,0)" d="M690.625 1421.875H703.125V1434.375H690.625Z" fill-rule="evenodd"/>
</clipPath>
<clipPath id="clip_47">
<path transform="matrix(.24,0,0,.24,0,0)" d="M0 0H2480V3509H0Z" fill-rule="evenodd"/>
</clipPath>
<clipPath id="clip_48">
<path transform="matrix(.24,0,0,.24,0,0)" d="M968.75 1643.75H1000V1675H968.75Z" fill-rule="evenodd"/>
</clipPath>
<clipPath id="clip_49">
<path transform="matrix(.24,0,0,.24,0,0)" d="M0 0H2480V3509H0Z" fill-rule="evenodd"/>
</clipPath>
<clipPath id="clip_50">
<path transform="matrix(.24,0,0,.24,0,0)" d="M690.625 1778.125H703.125V1790.625H690.625Z" fill-rule="evenodd"/>
</clipPath>
<clipPath id="clip_51">
<path transform="matrix(.24,0,0,.24,0,0)" d="M0 0H2480V3509H0Z" fill-rule="evenodd"/>
</clipPath>
<clipPath id="clip_52">
<path transform="matrix(.24,0,0,.24,0,0)" d="M690.625 1943.75H703.125V1956.25H690.625Z" fill-rule="evenodd"/>
</clipPath>
<clipPath id="clip_53">
<path transform="matrix(.24,0,0,.24,0,0)" d="M0 0H2480V3509H0Z" fill-rule="evenodd"/>
</clipPath>
<clipPath id="clip_54">
<path transform="matrix(.24,0,0,.24,0,0)" d="M1031.25 2165.625H1065.625V2196.875H1031.25Z" fill-rule="evenodd"/>
</clipPath>
<clipPath id="clip_55">
<path transform="matrix(.24,0,0,.24,0,0)" d="M0 0H2480V3509H0Z" fill-rule="evenodd"/>
</clipPath>
<clipPath id="clip_56">
<path transform="matrix(.24,0,0,.24,0,0)" d="M690.625 2300H703.125V2312.5H690.625Z" fill-rule="evenodd"/>
</clipPath>
<clipPath id="clip_57">
<path transform="matrix(.24,0,0,.24,0,0)" d="M0 0H2480V3509H0Z" fill-rule="evenodd"/>
</clipPath>
<clipPath id="clip_58">
<path transform="matrix(.24,0,0,.24,0,0)" d="M690.625 2412.5H703.125V2425H690.625Z" fill-rule="evenodd"/>
</clipPath>
<clipPath id="clip_59">
<path transform="matrix(.24,0,0,.24,0,0)" d="M0 0H2480V3509H0Z" fill-rule="evenodd"/>
</clipPath>
<clipPath id="clip_60">
<path transform="matrix(.24,0,0,.24,0,0)" d="M690.625 2525H703.125V2537.5H690.625Z" fill-rule="evenodd"/>
</clipPath>
<clipPath id="clip_61">
<path transform="matrix(.24,0,0,.24,0,0)" d="M0 0H2480V3509H0Z" fill-rule="evenodd"/>
</clipPath>
<clipPath id="clip_62">
<path transform="matrix(.24,0,0,.24,0,0)" d="M912.5 2746.875H946.875V2778.125H912.5Z" fill-rule="evenodd"/>
</clipPath>
<clipPath id="clip_63">
<path transform="matrix(.24,0,0,.24,0,0)" d="M0 0H2480V3509H0Z" fill-rule="evenodd"/>
</clipPath>
<clipPath id="clip_64">
<path transform="matrix(.24,0,0,.24,0,0)" d="M690.625 2881.25H703.125V2893.75H690.625Z" fill-rule="evenodd"/>
</clipPath>
<clipPath id="clip_65">
<path transform="matrix(.24,0,0,.24,0,0)" d="M0 0H2480V3509H0Z" fill-rule="evenodd"/>
</clipPath>
<clipPath id="clip_66">
<path transform="matrix(.24,0,0,.24,0,0)" d="M690.625 2940.625H703.125V2953.125H690.625Z" fill-rule="evenodd"/>
</clipPath>
<clipPath id="clip_67">
<path transform="matrix(.24,0,0,.24,0,0)" d="M0 0H2480V3509H0Z" fill-rule="evenodd"/>
</clipPath>
<clipPath id="clip_68">
<path transform="matrix(.24,0,0,.24,50.879999,812.16)" d="M0 0H2057V57H0Z" fill-rule="evenodd"/>
</clipPath>
</defs>
<g>
<g clip-path="url(#clip_35)">
<path transform="matrix(.75,0,0,.75,0,-842.25)" d="M0 1123H794V2246H0Z" fill="#ffffff"/>
</g>
<g clip-path="url(#clip_36)">
<path transform="matrix(.14999999,0,0,.14999999,165.75,50.25)" d="M20 10C19.999999 11.326081 19.746264 12.601692 19.238793 13.826833 18.731322 15.051973 18.008748 16.133385 17.071066 17.071066 16.133385 18.008748 15.051973 18.731322 13.826833 19.238793 12.601692 19.746264 11.326081 19.999999 10 20 8.673917 19.999999 7.3983056 19.746264 6.173165 19.238793 4.9480249 18.731322 3.8666137 18.008748 2.928932 17.071066 1.99125 16.133385 1.2686743 15.051973 .76120457 13.826833 .25373484 12.601692 0 11.326081 0 10 0 8.673917 .25373484 7.3983056 .76120457 6.173165 1.2686743 4.9480249 1.99125 3.8666137 2.928932 2.928932 3.8666137 1.99125 4.9480249 1.2686743 6.173165 .76120457 7.3983056 .25373484 8.673917 0 10 0 11.326081 0 12.601692 .25373484 13.826833 .76120457 15.051973 1.2686743 16.133385 1.99125 17.071066 2.928932 18.008748 3.8666137 18.731322 4.9480249 19.238793 6.173165 19.746264 7.3983056 19.999999 8.673917 20 10Z" fill="#222222"/>
</g>
<g clip-path="url(#clip_37)">
<text fill="#ffffff" xml:space="preserve" transform="matrix(.75 0 0 .75 0 -842.25)" font-size="1" font-family="PTSerif"><tspan y="1196" x="231.28125">&#x2022;</tspan></text>
<text fill="#222222" xml:space="preserve" transform="matrix(.75 0 0 .75 0 -842.25)" font-size="13.33" font-family="PTSerif"><tspan y="1196" x="231.28125 240.71753 247.18161 253.699 260.403 264.41477 271.7852 279.32887 286.0329 293.43 296.41548 305.51856 313.4621 318.15357 321.39228 328.0963 336.01319 343.41029 350.95399 358.3244 362.33616 370.25303 375.19776 380.9688 384.20753 388.52577 395.89619 401.01417 404.25288 409.19758 417.02116 423.72517 426.96388 434.22767 438.2394 445.60984 452.62043 455.85914 462.5898 470.13349 477.6772 481.68894 485.70069 491.91157 498.64225 503.58699 507.59873 514.9691 522.886 526.12478 533.7751 539.54617 543.55789 551.47476 558.48538 561.72409 568.97457 575.7052 581.47628 586.421 595.5241 603.46768 608.1591 611.3978 615.95608 621.07406 627.8047 639.3068 645.9975 655.5404 662.9108 668.0288 674.9061">Developed API endpoints for the blog application using FastAPI framework,</tspan></text>
<text fill="#222222" xml:space="preserve" transform="matrix(.75 0 0 .75 0 -842.25)" font-size="13.33" font-family="PTSerif"><tspan y="1196" x="678.15628"> </tspan></text>
<text fill="#222222" xml:space="preserve" transform="matrix(.75 0 0 .75 0 -842.25)" font-size="13.33" font-family="PTSerif"><tspan y="1213" x="231.28125 237.98528 245.90215 251.6732 259.32353 264.4415 268.45326 276.37013 283.38069 286.6194 294.1631 299.28108 306.6515 314.1952 320.89924 326.0172 329.25593 336.653 344.02345 350.2343 357.88465 369.38679 376.09083 384.0077 388.9524 395.68309 400.6278 404.63957 412.00999 419.92686 423.1656 432.8684 436.88017 441.8249 449.64848 452.8872 460.03108 469.7339 476.46458 483.47517 490.48576 497.1898 502.30778 505.54649 514.5029 519.1944 522.37979 525.6185 533.8819 541.2523 549.1692 554.1139 559.2319 563.24368 570.50747 578.1577 583.1024 589.80648 597.20358 600.44229 605.38699 612.7574 615.9961 622.7268 625.9656 631.9365 639.30697 646.70407 653.4081 660.6719 667.4026 673.17367 679.8777 683.1164 692.8192 696.83096 701.77566">ensuring proper documentation with Swagger UI. Contributed to a codebase with</tspan></text>
<text fill="#222222" xml:space="preserve" transform="matrix(.75 0 0 .75 0 -842.25)" font-size="13.33" font-family="PTSerif"><tspan y="1213" x="709.6094"> </tspan></text>
<text fill="#222222" xml:space="preserve" transform="matrix(.75 0 0 .75 0 -842.25)" font-size="13.33" font-family="PTSerif"><tspan y="1230" x="231.28125 238.41173 244.92913 251.63315 256.75114 259.98988 267.09376 274.19764 281.3015 288.4054 291.6441 295.65586 299.6676 307.58448 314.2885 320.05958 323.29829 330.6687 335.2269 338.46565 344.43659 351.807 359.2041 365.90815 369.1468 372.3855 379.7826 386.48664 397.98878 405.3592 413.27607 419.04713 423.99183 429.1098 435.84049 440.78523 444.79698 452.71385 459.72444 462.96315 470.50685 475.62483 482.99525 487.55345 491.5652 497.77607 501.7878 508.49186 516.4087 522.61959 529.3502 532.589 536.6007 544.5176 547.75637 557.2992 564.6696 569.7876 576.6649 580.67666 588.5935 595.6041 598.84286 608.54568 612.5574 617.5021 625.3257 628.56448 632.5762 639.3069 644.42489 651.4354 658.13949 663.8039 669.57498 675.7858 682.5165 686.5282">over 1000 lines of code, demonstrating proficiency in working with large-scale</tspan></text>
<text fill="#222222" xml:space="preserve" transform="matrix(.75 0 0 .75 0 -842.25)" font-size="13.33" font-family="PTSerif"><tspan y="1230" x="693.2344"> </tspan></text>
<text fill="#222222" xml:space="preserve" transform="matrix(.75 0 0 .75 0 -842.25)" font-size="13.33" font-family="PTSerif"><tspan y="1247" x="231.28125 238.82494 243.94292 251.31334 255.15183 261.85585 268.05339 272.9981 278.76918">projects.</tspan></text>
<path transform="matrix(.75,0,0,.75,0,-842.25)" d="M68 1314V1287C67.99999 1286.7348 68.05074 1286.4795 68.15224 1286.2345 68.25373 1285.9895 68.39825 1285.7733 68.585788 1285.5858 68.77332 1285.3982 68.9896 1285.2536 69.23463 1285.1521 69.47966 1285.0507 69.73478 1285 70 1285H724C724.26516 1285 724.5202 1285.0507 724.7652 1285.1521 725.0103 1285.2536 725.2266 1285.3982 725.4142 1285.5858 725.6016 1285.7733 725.74618 1285.9895 725.84768 1286.2345 725.94918 1286.4795 725.99996 1286.7348 726 1287V1314C725.99996 1314.2651 725.94918 1314.5203 725.84768 1314.7653 725.74618 1315.0103 725.6016 1315.2266 725.4142 1315.4141 725.2266 1315.6016 725.0103 1315.7461 724.76528 1315.8475 724.5202 1315.9491 724.26516 1315.9999 724 1316H70C69.73478 1315.9999 69.47966 1315.9491 69.23463 1315.8475 68.9896 1315.7461 68.77332 1315.6016 68.585788 1315.4141 68.39825 1315.2266 68.25373 1315.0103 68.15224 1314.7653 68.05074 1314.5203 67.99999 1314.2651 68 1314Z" fill="#222222" fill-opacity=".0706"/>
</g>
<g clip-path="url(#clip_38)">
<path transform="matrix(.024920656,0,0,.024920656,244.5,126.868358)" d="M320 32C311.9 32 303.9 33.4 296.3 36.1L15.8 137.4C6.3 140.9 0 149.9 0 160 0 170.1 6.3 179.1 15.8 182.6L73.700008 203.5C57.3 229.3 48 259.8 48 291.9V320C48 348.4 37.2 377.7 25.7 400.8 19.2 413.8 11.800001 426.59999 3.2000008 438.4 0 442.7-.90000006 448.3 .90000006 453.4 2.7 458.5 6.9 462.3 12.099999 463.6L76.1 479.6C80.299999 480.7 84.799999 479.9 88.5 477.6 92.200008 475.30003 94.8 471.5 95.6 467.2 104.2 424.40003 99.9 386 93.5 358.5 90.3 344.3 86 329.8 80 316.5V291.9C80 261.69999 90.2 233.2 107.9 210.4 120.8 194.9 137.5 182.4 157.1 174.7L314.1 113C322.30003 109.8 331.6 113.8 334.80003 122 338.00004 130.2 334.00004 139.5 325.80003 142.7L168.80002 204.4C156.40003 209.29999 145.50002 216.79999 136.60002 226L296.2 283.6C303.80003 286.30003 311.80003 287.7 319.90003 287.7 328.00004 287.7 336.00004 286.30003 343.60005 283.6L624.2 182.6C633.7 179.20001 640 170.1 640 160 640 149.9 633.7 140.9 624.2 137.4L343.7 36.1C336.1 33.4 328.1 32 320 32ZM128 408C128 443.3 214 480 320 480 426 480 512 443.3 512 408L496.7 262.6 354.5 314C343.4 318 331.7 320 320 320 308.3 320 296.5 318 285.5 314L143.3 262.6 128 408Z" fill="#222222"/>
<path transform="matrix(.024920656,0,0,.024920656,244.5,126.868358)" stroke-width="1" stroke-linecap="butt" stroke-miterlimit="4" stroke-linejoin="miter" fill="none" stroke="#222222" d="M320 32C311.9 32 303.9 33.4 296.3 36.1L15.8 137.4C6.3 140.9 0 149.9 0 160 0 170.1 6.3 179.1 15.8 182.6L73.700008 203.5C57.3 229.3 48 259.8 48 291.9V320C48 348.4 37.2 377.7 25.7 400.8 19.2 413.8 11.800001 426.59999 3.2000008 438.4 0 442.7-.90000006 448.3 .90000006 453.4 2.7 458.5 6.9 462.3 12.099999 463.6L76.1 479.6C80.299999 480.7 84.799999 479.9 88.5 477.6 92.200008 475.30003 94.8 471.5 95.6 467.2 104.2 424.40003 99.9 386 93.5 358.5 90.3 344.3 86 329.8 80 316.5V291.9C80 261.69999 90.2 233.2 107.9 210.4 120.8 194.9 137.5 182.4 157.1 174.7L314.1 113C322.30003 109.8 331.6 113.8 334.80003 122 338.00004 130.2 334.00004 139.5 325.80003 142.7L168.80002 204.4C156.40003 209.29999 145.50002 216.79999 136.60002 226L296.2 283.6C303.80003 286.30003 311.80003 287.7 319.90003 287.7 328.00004 287.7 336.00004 286.30003 343.60005 283.6L624.2 182.6C633.7 179.20001 640 170.1 640 160 640 149.9 633.7 140.9 624.2 137.4L343.7 36.1C336.1 33.4 328.1 32 320 32ZM128 408C128 443.3 214 480 320 480 426 480 512 443.3 512 408L496.7 262.6 354.5 314C343.4 318 331.7 320 320 320 308.3 320 296.5 318 285.5 314L143.3 262.6 128 408Z"/>
</g>
<g clip-path="url(#clip_39)">
<text fill="#222222" xml:space="preserve" transform="matrix(.75 0 0 .75 0 -842.25)" font-size="19.33" font-family="PTSerif" font-weight="bold"><tspan y="1307" x="357.64064 369.81483 384.5403 398.85993 411.49794 424.34843 437.7403 445.43037 460.50376">EDUCATION</tspan></text>
<text fill="#222222" xml:space="preserve" transform="matrix(.75 0 0 .75 0 -842.25)" font-size="13.33" font-family="PTSerif"><tspan y="1348" x="68.03125 75.13512 82.23898 86.82384 93.927707 101.03157 108.13544 115.2393 117.944828 125.75499 128.99372 136.09758 143.20145 147.7863 154.89017 161.99404 169.0979">01/2020 &#x2013; 01/2024</tspan></text>
<text fill="#222222" xml:space="preserve" transform="matrix(.75 0 0 .75 0 -842.25)" font-size="13.33" font-family="PTSerif"><tspan y="1368" x="68.03125 79.586688 83.598438 88.716419 96.2601 103.910419 109.0284 112.26712 120.8504 127.581089 135.49796 140.44268 147.8131 155.72997 167.2321 173.93613 181.853 186.79772">Mirpur Cantonment,</tspan></text>
<text fill="#222222" xml:space="preserve" transform="matrix(.75 0 0 .75 0 -842.25)" font-size="13.33" font-family="PTSerif"><tspan y="1388" x="68.03125 77.46753 85.29111 92.02179 98.89908 105.62976 111.29419 118.398059 125.50192 132.60579">Dhaka-1216</tspan></text>
<text fill="#222222" xml:space="preserve" transform="matrix(.75 0 0 .75 0 -842.25)" font-size="15.33" font-family="PTSerif" font-weight="bold"><tspan y="1348" x="219.28125 229.22924 237.76703 247.63837 256.28346 261.3724 269.91023 279.0918 287.32304 294.25135 304.06138">Bangladesh </tspan></text>
<text fill="#222222" xml:space="preserve" transform="matrix(.75 0 0 .75 0 -842.25)" font-size="15.33" font-family="PTSerif" font-weight="bold"><tspan y="1348" x="308.20314 319.16279 329.03413 334.12309 342.15504 350.38627 356.9927 363.92103 369.00999 375.03395 383.1272">University </tspan></text>
<text fill="#222222" xml:space="preserve" transform="matrix(.75 0 0 .75 0 -842.25)" font-size="15.33" font-family="PTSerif" font-weight="bold"><tspan y="1348" x="387.28126 396.38618 402.08827">of </tspan></text>
<text fill="#222222" xml:space="preserve" transform="matrix(.75 0 0 .75 0 -842.25)" font-size="15.33" font-family="PTSerif" font-weight="bold"><tspan y="1348" x="406.23439 415.95243 422.55888 431.66383 437.13594 445.36717 452.29548 459.22383 464.31278 473.41773 483.28907 491.82685 496.9158">Professionals</tspan></text>
</g>
<g clip-path="url(#clip_40)">
<path transform="matrix(.20735677,0,0,.20735677,382.7871,162)" d="M27 33H5C4.4477155 33 3.9763106 32.804738 3.585786 32.41421 3.195262 32.02369 2.9999998 31.552285 3 31V9C3 8.447715 3.1952623 7.9763109 3.5857867 7.5857865 3.976311 7.195262 4.4477155 7 5 7H15V9H5V31H27V21H29V31C28.999999 31.552285 28.804736 32.02369 28.414212 32.41421 28.023688 32.804738 27.552283 33 27 33Z" fill="#222222"/>
<path transform="matrix(.20735677,0,0,.20735677,382.7871,162)" d="M18 3C17.333334 3 17 3.3333333 17 4 17 4.6666667 17.333334 5 18 5H29.59L15.74 18.85C15.518712 19.039505 15.402447 19.279822 15.391202 19.570948 15.379956 19.862074 15.477339 20.110642 15.683349 20.316653 15.889359 20.522664 16.137928 20.620047 16.429055 20.6088 16.720179 20.597556 16.960495 20.481289 17.15 20.26L31 6.41V18C31 18.666666 31.333334 19 32 19 32.666669 19 33 18.666666 33 18V3H18Z" fill="#222222"/>
</g>
<g clip-path="url(#clip_41)">
<text fill="#222222" xml:space="preserve" transform="matrix(.75 0 0 .75 0 -842.25)" font-size="15.33" font-family="PTSerif" font-style="italic"><tspan y="1368" x="219.28125 228.5548 232.70873 240.78667 247.34712 250.88785">B.Sc. </tspan></text>
<text fill="#222222" xml:space="preserve" transform="matrix(.75 0 0 .75 0 -842.25)" font-size="15.33" font-family="PTSerif" font-style="italic"><tspan y="1368" x="254.625 258.8709 267.33207">in </tspan></text>
<text fill="#222222" xml:space="preserve" transform="matrix(.75 0 0 .75 0 -842.25)" font-size="15.33" font-family="PTSerif" font-style="italic"><tspan y="1368" x="271.0625 276.32008 284.78123 289.33369 297.1357 303.03706 315.2996 323.50019 328.66578 332.91169 340.7137 349.17488">Information </tspan></text>
<text fill="#222222" xml:space="preserve" transform="matrix(.75 0 0 .75 0 -842.25)" font-size="15.33" font-family="PTSerif" font-style="italic"><tspan y="1368" x="352.90626 361.1068 369.56797 377.76856">and </tspan></text>
<text fill="#222222" xml:space="preserve" transform="matrix(.75 0 0 .75 0 -842.25)" font-size="15.33" font-family="PTSerif" font-style="italic"><tspan y="1368" x="381.5 390.97279 398.7748 411.03736 423.2999 431.60777 440.0689 444.31483 450.85993 459.0605 464.22608 468.472 476.27403 484.73518">Communication </tspan></text>
<text fill="#222222" xml:space="preserve" transform="matrix(.75 0 0 .75 0 -842.25)" font-size="15.33" font-family="PTSerif" font-style="italic"><tspan y="1368" x="488.46876 497.23646 505.6976 513.19308 517.43899 525.90017 532.85916 539.8181 545.7195 549.9654 558.4265">Engineering</tspan></text>
<text fill="#222222" xml:space="preserve" transform="matrix(.75 0 0 .75 0 -842.25)" font-size="13.33" font-family="PTSerif"><tspan y="1388" x="219.28125 227.54462 236.71434 243.68479 252.78786 257.14613 260.38484 267.4887 271.20726 278.3111">CGPA: 3.58</tspan></text>
<path transform="matrix(.75,0,0,.75,0,-842.25)" d="M68 1458V1431C67.99999 1430.7348 68.05074 1430.4795 68.15224 1430.2345 68.25373 1429.9895 68.39825 1429.7732 68.585788 1429.5857 68.77332 1429.3981 68.9896 1429.2536 69.23463 1429.1521 69.47966 1429.0507 69.73478 1429 70 1429H724C724.26516 1429 724.5202 1429.0507 724.7652 1429.1521 725.0103 1429.2536 725.2266 1429.3981 725.4142 1429.5857 725.6016 1429.7732 725.74618 1429.9895 725.84768 1430.2345 725.94918 1430.4795 725.99996 1430.7348 726 1431V1458C725.99996 1458.2651 725.94918 1458.5203 725.84768 1458.7653 725.74618 1459.0103 725.6016 1459.2266 725.4142 1459.4142 725.2266 1459.6017 725.0103 1459.7462 724.76528 1459.8477 724.5202 1459.9492 724.26516 1460 724 1460H70C69.73478 1460 69.47966 1459.9492 69.23463 1459.8477 68.9896 1459.7462 68.77332 1459.6017 68.585788 1459.4142 68.39825 1459.2266 68.25373 1459.0103 68.15224 1458.7653 68.05074 1458.5203 67.99999 1458.2651 68 1458Z" fill="#222222" fill-opacity=".0706"/>
</g>
<g clip-path="url(#clip_42)">
<path transform="matrix(.027689616,0,0,.027689616,252,234.1595)" d="M88.7 223.8 0 375.8V96C0 60.7 28.7 32 64 32H181.5C198.5 32 214.8 38.7 226.8 50.7L253.3 77.2C265.3 89.2 281.6 95.899997 298.6 95.899997H416C451.3 95.899997 480 124.59999 480 159.9V191.9H144C121.2 191.9 100.2 204 88.7 223.7V223.8ZM116.299999 239.90001C122.1 230 132.6 224 144 224H544C555.5 224 566 230.1 571.7 240.1 577.4 250.1 577.4 262.30003 571.60006 272.2L459.60005 464.2C453.9 474 443.4 480 432 480H32C20.5 480 10 473.9 4.299999 463.9-1.4000015 453.9-1.4000006 441.69999 4.399999 431.8L116.4 239.79999 116.299999 239.90001Z" fill="#222222"/>
<path transform="matrix(.027689616,0,0,.027689616,252,234.1595)" stroke-width="1" stroke-linecap="butt" stroke-miterlimit="4" stroke-linejoin="miter" fill="none" stroke="#222222" d="M88.7 223.8 0 375.8V96C0 60.7 28.7 32 64 32H181.5C198.5 32 214.8 38.7 226.8 50.7L253.3 77.2C265.3 89.2 281.6 95.899997 298.6 95.899997H416C451.3 95.899997 480 124.59999 480 159.9V191.9H144C121.2 191.9 100.2 204 88.7 223.7V223.8ZM116.299999 239.90001C122.1 230 132.6 224 144 224H544C555.5 224 566 230.1 571.7 240.1 577.4 250.1 577.4 262.30003 571.60006 272.2L459.60005 464.2C453.9 474 443.4 480 432 480H32C20.5 480 10 473.9 4.299999 463.9-1.4000015 453.9-1.4000006 441.69999 4.399999 431.8L116.4 239.79999 116.299999 239.90001Z"/>
</g>
<g clip-path="url(#clip_43)">
<text fill="#222222" xml:space="preserve" transform="matrix(.75 0 0 .75 0 -842.25)" font-size="19.33" font-family="PTSerif" font-weight="bold"><tspan y="1451" x="367.53126 380.40126 393.61909 408.69248 416.24726 428.42146 441.05946 454.4513">PROJECTS</tspan></text>
<text fill="#222222" xml:space="preserve" transform="matrix(.75 0 0 .75 0 -842.25)" font-size="13.33" font-family="PTSerif"><tspan y="1491" x="68.03125 75.13512 82.23898 86.82384 93.927707 101.03157 108.13544 115.2393 117.944828 125.75499 128.99372 136.09758 143.20145 147.7863 154.89017 161.99404 169.0979">01/2024 &#x2013; 03/2024</tspan></text>
<text fill="#222222" xml:space="preserve" transform="matrix(.75 0 0 .75 0 -842.25)" font-size="15.33" font-family="PTSerif" font-weight="bold"><tspan y="1491" x="219.28125 233.53646 243.07057 248.15953 254.27547 259.36445 267.39637 275.6276 285.49894 294.6805 303.78547 310.3919">Multivendor </tspan></text>
<text fill="#222222" xml:space="preserve" transform="matrix(.75 0 0 .75 0 -842.25)" font-size="15.33" font-family="PTSerif" font-weight="bold"><tspan y="1491" x="314.53126 324.21864 335.77607 344.32917">POS </tspan></text>
<text fill="#222222" xml:space="preserve" transform="matrix(.75 0 0 .75 0 -842.25)" font-size="15.33" font-family="PTSerif" font-weight="bold"><tspan y="1491" x="348.46876 357.02186 365.1151 372.04347 378.1594 386.39064">System</tspan></text>
<text fill="#222222" xml:space="preserve" transform="matrix(.75 0 0 .75 0 -842.25)" font-size="15.33" font-family="PTSerif" font-style="italic"><tspan y="1511" x="219.28125 222.91403">| </tspan></text>
<text fill="#222222" xml:space="preserve" transform="matrix(.75 0 0 .75 0 -842.25)" font-size="15.33" font-family="PTSerif" font-style="italic"><tspan y="1511" x="226.64063 237.72289 244.68187 251.64086 256.80647 260.9604 265.17564 271.58283 275.3075">Next.js, </tspan></text>
<text fill="#222222" xml:space="preserve" transform="matrix(.75 0 0 .75 0 -842.25)" font-size="15.33" font-family="PTSerif" font-style="italic"><tspan y="1511" x="279.04689 287.12483 295.448 303.64857 311.84913 318.40959 326.87074 330.5954">Shadcn, </tspan></text>
<text fill="#222222" xml:space="preserve" transform="matrix(.75 0 0 .75 0 -842.25)" font-size="15.33" font-family="PTSerif" font-style="italic"><tspan y="1511" x="334.32814 343.9389 352.7066 360.78456 370.13475">REST </tspan></text>
<text fill="#222222" xml:space="preserve" transform="matrix(.75 0 0 .75 0 -842.25)" font-size="15.33" font-family="PTSerif" font-style="italic"><tspan y="1511" x="373.875 384.20619 393.17317">API</tspan></text>
</g>
<g clip-path="url(#clip_44)">
<path transform="matrix(.14999999,0,0,.14999999,165.75,301.5)" d="M20 10C19.999999 11.326081 19.746264 12.601692 19.238793 13.826833 18.731322 15.051973 18.008748 16.133385 17.071066 17.071066 16.133385 18.008748 15.051973 18.731322 13.826833 19.238793 12.601692 19.746264 11.326081 19.999999 10 20 8.673917 19.999999 7.3983056 19.746264 6.173165 19.238793 4.9480249 18.731322 3.8666137 18.008748 2.928932 17.071066 1.99125 16.133385 1.2686743 15.051973 .76120457 13.826833 .25373484 12.601692 0 11.326081 0 10 0 8.673917 .25373484 7.3983056 .76120457 6.173165 1.2686743 4.9480249 1.99125 3.8666137 2.928932 2.928932 3.8666137 1.99125 4.9480249 1.2686743 6.173165 .76120457 7.3983056 .25373484 8.673917 0 10 0 11.326081 0 12.601692 .25373484 13.826833 .76120457 15.051973 1.2686743 16.133385 1.99125 17.071066 2.928932 18.008748 3.8666137 18.731322 4.9480249 19.238793 6.173165 19.746264 7.3983056 19.999999 8.673917 20 10Z" fill="#222222"/>
</g>
<g clip-path="url(#clip_45)">
<text fill="#ffffff" xml:space="preserve" transform="matrix(.75 0 0 .75 0 -842.25)" font-size="1" font-family="PTSerif"><tspan y="1531" x="231.28125">&#x2022;</tspan></text>
<text fill="#222222" xml:space="preserve" transform="matrix(.75 0 0 .75 0 -842.25)" font-size="13.33" font-family="PTSerif"><tspan y="1531" x="231.28125 239.54462 246.91504 254.83191 259.7766 264.8946 268.90635 276.17015 283.82044 288.76515 295.46919 302.86628 306.10499 311.04969 318.4201 321.6588 328.3895 331.62825 343.13038 350.7807 354.79246 359.73719 363.74894 369.1734 375.6908 382.39485 390.3117 397.7088 405.07923 410.1972 413.4359 421.1795 431.0423 438.18617 441.42488 447.19593 453.9266 459.69767 464.6424 471.34645 482.84858 486.08729 495.79014 503.6137 510.31773 515.43569 522.1397 525.3784 531.1495 538.973 546.34347 553.8871 557.1258 564.33627 574.03909 581.95596 588.66 593.77798 599.549 602.7877 608.9986 615.72927 623.6461 626.8849 633.09579 638.21377 644.9178 651.64846 656.59317 663.2972 666.5359 672.30697 680.1305 687.5009 695.04458 700.8156">Contributed to a multi-vendor POS system where shop owners can create shops,</tspan></text>
<text fill="#222222" xml:space="preserve" transform="matrix(.75 0 0 .75 0 -842.25)" font-size="13.33" font-family="PTSerif"><tspan y="1531" x="704.0625"> </tspan></text>
<text fill="#222222" xml:space="preserve" transform="matrix(.75 0 0 .75 0 -842.25)" font-size="13.33" font-family="PTSerif"><tspan y="1548" x="231.28125 238.01194 243.78299 249.55405 253.5658 260.57637 268.49324 271.73194 283.23408 289.96476 297.88163 304.6123 311.62287 318.3269 323.4449 329.21595 332.45466 339.18534 347.1022 354.49928 357.73799 363.50904 370.21308 374.22483 378.23658 384.9406 390.0586 395.82966 399.0683 402.307 409.0377 416.95457 424.35163 427.59034 439.09248 445.82316 453.74003 460.4707 467.48127 474.1853 479.30329 485.07435 488.31309 494.52397 501.25465 509.1715 512.4103 519.141 526.5381 533.9352 537.1739 544.5443 549.6623 552.901 558.019 564.723 576.22518 583.35568 589.87307 596.5771 599.8158 607.3595 612.4775 619.8479 627.245 634.8953 641.0929 646.0376 651.80868 655.04739 661.7781 669.69497 677.09207 680.33078 686.1018 692.80587 696.8176 700.82937 707.5334 712.65139">assign managers and sellers, and managers can add or remove products and sellers</tspan></text>
<text fill="#222222" xml:space="preserve" transform="matrix(.75 0 0 .75 0 -842.25)" font-size="13.33" font-family="PTSerif"><tspan y="1548" x="718.4375"> </tspan></text>
<text fill="#222222" xml:space="preserve" transform="matrix(.75 0 0 .75 0 -842.25)" font-size="13.33" font-family="PTSerif"><tspan y="1565" x="231.28125 235.5995 242.96993 248.0879 251.32663 256.27137 264.09495 270.79896 274.8107 279.92869 283.16743 289.8981 295.66917 301.44023 305.45198 312.46253 320.3794 327.08345 334.48054 337.71925 343.4903 351.31388 358.6843 366.22798 371.99903">for their assigned shops.</tspan></text>
</g>
<g clip-path="url(#clip_46)">
<path transform="matrix(.14999999,0,0,.14999999,165.75,341.25)" d="M20 10C19.999999 11.326081 19.746264 12.601692 19.238793 13.826833 18.731322 15.051973 18.008748 16.133385 17.071066 17.071066 16.133385 18.008748 15.051973 18.731322 13.826833 19.238793 12.601692 19.746264 11.326081 19.999999 10 20 8.673917 19.999999 7.3983056 19.746264 6.173165 19.238793 4.9480249 18.731322 3.8666137 18.008748 2.928932 17.071066 1.99125 16.133385 1.2686743 15.051973 .76120457 13.826833 .25373484 12.601692 0 11.326081 0 10 0 8.673917 .25373484 7.3983056 .76120457 6.173165 1.2686743 4.9480249 1.99125 3.8666137 2.928932 2.928932 3.8666137 1.99125 4.9480249 1.2686743 6.173165 .76120457 7.3983056 .25373484 8.673917 0 10 0 11.326081 0 12.601692 .25373484 13.826833 .76120457 15.051973 1.2686743 16.133385 1.99125 17.071066 2.928932 18.008748 3.8666137 18.731322 4.9480249 19.238793 6.173165 19.746264 7.3983056 19.999999 8.673917 20 10Z" fill="#222222"/>
</g>
<g clip-path="url(#clip_47)">
<text fill="#ffffff" xml:space="preserve" transform="matrix(.75 0 0 .75 0 -842.25)" font-size="1" font-family="PTSerif"><tspan y="1584" x="231.28125">&#x2022;</tspan></text>
<text fill="#222222" xml:space="preserve" transform="matrix(.75 0 0 .75 0 -842.25)" font-size="13.33" font-family="PTSerif"><tspan y="1584" x="231.28125 238.4251 245.12912 249.14087 253.15262 259.85664 264.9746 270.74568 273.98439 280.19526 286.92594 294.8428 298.08155 303.8526 310.55665 314.5684 318.58015 321.81886 329.36256 334.48054 341.85096 349.24806 356.89839 363.09593 368.04066 373.8117 377.0504 381.6086 386.7266 394.09703 405.59916 408.8379 413.7826 421.60618 428.31019 432.32194 437.4399 440.67866 447.40934 453.1804 458.95146 462.9632 469.97377 477.89064 484.59468 491.99174 495.23045 501.0015 508.82508 516.1955 523.73916 526.97787 533.7085 541.62539 549.02249 552.26119 559.8049 564.92288 568.9346 576.85147 581.79617 585.03488 592.29867 596.3104 600.32217 604.33389 610.1049 613.3436 620.99398 626.765 630.77676 638.6936 645.7042 648.94296 655.6736 658.91238 663.85708 671.68069 678.38467 683.5026 695.00479 701.7355">Sellers can sell products from their assigned shop and print bills using a thermal</tspan></text>
<text fill="#222222" xml:space="preserve" transform="matrix(.75 0 0 .75 0 -842.25)" font-size="13.33" font-family="PTSerif"><tspan y="1584" x="705.75"> </tspan></text>
<text fill="#222222" xml:space="preserve" transform="matrix(.75 0 0 .75 0 -842.25)" font-size="13.33" font-family="PTSerif"><tspan y="1601" x="231.28125 238.82494 243.94292 247.95467 255.87154 260.81626 267.52027 272.10505 275.29039 278.5291 285.67298 293.49656 300.86698 308.41065 311.64936 318.8598 328.56263 336.4795 343.18354 348.3015 354.07258 357.31129 364.04197 369.15995 375.86396 379.10267 384.22065 390.92469 398.22846 405.87879 409.89054 415.0085 421.71253 429.10963 432.34834 437.29304 444.66346 447.90217 455.44587 462.17655 468.90724 472.14595 478.87663 482.11537 486.67356 490.6853 497.4426 504.14665 511.54374 514.7825 521.5132 533.0153 540.38577 548.036 555.9529 560.8976 564.1363 568.4545 575.82498 580.94296 584.18167 590.91238 594.1511 598.70938 602.72109 609.4784 616.18246 623.5795 626.81826 634.7351 642.38546 653.8876 661.15139 667.8554 672.9734 676.2121 683.5825">printer. Shop owners are required to pay a fixed amount for a fixed number of</tspan></text>
<text fill="#222222" xml:space="preserve" transform="matrix(.75 0 0 .75 0 -842.25)" font-size="13.33" font-family="PTSerif"><tspan y="1601" x="688.15628"> </tspan></text>
<text fill="#222222" xml:space="preserve" transform="matrix(.75 0 0 .75 0 -842.25)" font-size="13.33" font-family="PTSerif"><tspan y="1618" x="231.28125 237.0523 244.87589 252.2463 259.78999 265.56105 268.79969 272.0384 281.7412 285.75297 290.6977 298.52128 301.76 306.7047 314.5283 321.2323 324.471 331.2017 338.46549 342.47724 346.48899 350.50074 355.43214 362.1628 365.40156 370.34626 377.71669 380.95539 387.7127 391.72447 398.41517 408.11799 411.3567 416.3014 424.12498 430.82899 434.0677 438.07945 444.81013 450.58119 455.52589 458.7646 466.3083 473.03898 479.76966 491.2718 497.9758 505.89268 510.83738 514.07608 521.47317 528.20388 533.14859">shops, with the ability to view the last payment date</tspan></text>
<text fill="#222222" xml:space="preserve" transform="matrix(.75 0 0 .75 0 -842.25)" font-size="13.33" font-family="PTSerif"><tspan y="1658" x="68.03125 75.13512 82.23898 86.82384 93.927707 101.03157 108.13544">05/2024</tspan></text>
<text fill="#222222" xml:space="preserve" transform="matrix(.75 0 0 .75 0 -842.25)" font-size="15.33" font-family="PTSerif" font-weight="bold"><tspan y="1658" x="219.28125 228.53946 235.72835 244.83329 258.99653 273.15974 281.39097 287.9974 295.18629">Ecommerce</tspan></text>
</g>
<g clip-path="url(#clip_48)">
<path transform="matrix(.20735677,0,0,.20735677,232.78711,394.5)" d="M27 33H5C4.4477155 33 3.9763106 32.804738 3.585786 32.41421 3.195262 32.02369 2.9999998 31.552285 3 31V9C3 8.447715 3.1952623 7.9763109 3.5857867 7.5857865 3.976311 7.195262 4.4477155 7 5 7H15V9H5V31H27V21H29V31C28.999999 31.552285 28.804736 32.02369 28.414212 32.41421 28.023688 32.804738 27.552283 33 27 33Z" fill="#222222"/>
<path transform="matrix(.20735677,0,0,.20735677,232.78711,394.5)" d="M18 3C17.333334 3 17 3.3333333 17 4 17 4.6666667 17.333334 5 18 5H29.59L15.74 18.85C15.518712 19.039505 15.402447 19.279822 15.391202 19.570948 15.379956 19.862074 15.477339 20.110642 15.683349 20.316653 15.889359 20.522664 16.137928 20.620047 16.429055 20.6088 16.720179 20.597556 16.960495 20.481289 17.15 20.26L31 6.41V18C31 18.666666 31.333334 19 32 19 32.666669 19 33 18.666666 33 18V3H18Z" fill="#222222"/>
</g>
<g clip-path="url(#clip_49)">
<text fill="#222222" xml:space="preserve" transform="matrix(.75 0 0 .75 0 -842.25)" font-size="15.33" font-family="PTSerif" font-style="italic"><tspan y="1678" x="219.28125 222.91403">| </tspan></text>
<text fill="#222222" xml:space="preserve" transform="matrix(.75 0 0 .75 0 -842.25)" font-size="15.33" font-family="PTSerif" font-style="italic"><tspan y="1678" x="226.64063 237.72289 244.68187 251.64086 256.80647 260.9604 265.17564 271.58283 275.3075">Next.js, </tspan></text>
<text fill="#222222" xml:space="preserve" transform="matrix(.75 0 0 .75 0 -842.25)" font-size="15.33" font-family="PTSerif" font-style="italic"><tspan y="1678" x="279.04689 288.45835 295.41734 303.61793 311.92579 318.88478">Redux </tspan></text>
<text fill="#222222" xml:space="preserve" transform="matrix(.75 0 0 .75 0 -842.25)" font-size="15.33" font-family="PTSerif" font-style="italic"><tspan y="1678" x="322.625 331.4233 339.22535 347.02738 351.27326 358.64613 362.89204 368.05763 371.7823">Toolkit, </tspan></text>
<text fill="#222222" xml:space="preserve" transform="matrix(.75 0 0 .75 0 -842.25)" font-size="15.33" font-family="PTSerif" font-style="italic"><tspan y="1678" x="375.51564 388.65187 396.4539 404.91505 412.41053 420.21257 428.0146 434.42176 441.38075 445.1054">Mongoose, </tspan></text>
<text fill="#222222" xml:space="preserve" transform="matrix(.75 0 0 .75 0 -842.25)" font-size="15.33" font-family="PTSerif" font-style="italic"><tspan y="1678" x="448.84376 461.97999 469.782 478.24317 485.73866 493.54069">Mongo </tspan></text>
<text fill="#222222" xml:space="preserve" transform="matrix(.75 0 0 .75 0 -842.25)" font-size="15.33" font-family="PTSerif" font-style="italic"><tspan y="1678" x="497.26564 507.22889 512.3945 516.6404 524.84097 531.2481 534.9728">Atlas, </tspan></text>
<text fill="#222222" xml:space="preserve" transform="matrix(.75 0 0 .75 0 -842.25)" font-size="15.33" font-family="PTSerif" font-style="italic"><tspan y="1678" x="538.7031 543.77676 557.9553 566.5543 570.279">JWT, </tspan></text>
<text fill="#222222" xml:space="preserve" transform="matrix(.75 0 0 .75 0 -842.25)" font-size="15.33" font-family="PTSerif" font-style="italic"><tspan y="1678" x="574.0156 582.81399 591.0145 595.26046 599.50637 610.0368 614.2827 622.7439">Tailwind</tspan></text>
</g>
<g clip-path="url(#clip_50)">
<path transform="matrix(.14999999,0,0,.14999999,165.75,426.75)" d="M20 10C19.999999 11.326081 19.746264 12.601692 19.238793 13.826833 18.731322 15.051973 18.008748 16.133385 17.071066 17.071066 16.133385 18.008748 15.051973 18.731322 13.826833 19.238793 12.601692 19.746264 11.326081 19.999999 10 20 8.673917 19.999999 7.3983056 19.746264 6.173165 19.238793 4.9480249 18.731322 3.8666137 18.008748 2.928932 17.071066 1.99125 16.133385 1.2686743 15.051973 .76120457 13.826833 .25373484 12.601692 0 11.326081 0 10 0 8.673917 .25373484 7.3983056 .76120457 6.173165 1.2686743 4.9480249 1.99125 3.8666137 2.928932 2.928932 3.8666137 1.99125 4.9480249 1.2686743 6.173165 .76120457 7.3983056 .25373484 8.673917 0 10 0 11.326081 0 12.601692 .25373484 13.826833 .76120457 15.051973 1.2686743 16.133385 1.99125 17.071066 2.928932 18.008748 3.8666137 18.731322 4.9480249 19.238793 6.173165 19.746264 7.3983056 19.999999 8.673917 20 10Z" fill="#222222"/>
</g>
<g clip-path="url(#clip_51)">
<text fill="#ffffff" xml:space="preserve" transform="matrix(.75 0 0 .75 0 -842.25)" font-size="1" font-family="PTSerif"><tspan y="1698" x="231.28125">&#x2022;</tspan></text>
<text fill="#222222" xml:space="preserve" transform="matrix(.75 0 0 .75 0 -842.25)" font-size="13.33" font-family="PTSerif"><tspan y="1698" x="231.28125 240.71753 247.18161 253.699 260.403 264.41477 271.7852 279.32887 286.0329 293.43 296.6687 303.39939 311.31626 314.555 321.25904 327.22999 334.6004 346.10255 357.60469 364.30873 369.4267 375.39765 382.10169 385.3404 392.8841 396.89585 403.62654 408.57124 412.88948 420.2599 425.37788 436.88 440.1187 449.82154 457.6451 464.34913 469.4671 476.17115 479.40986 486.16719 490.17897 495.95 499.96177 504.9065 512.2769 517.3949 523.16598 526.40469 532.61557 539.3462 547.26309 550.50186 556.2729 562.9769 569.70767 574.8256 581.0365 588.8601 592.0988 599.6425 604.7605 612.1309 619.528 627.17837 633.37588 638.32058 644.0916 647.3303 654.3542 661.08486 664.3236 672.2405 678.9712 690.4733 697.17739 700.4161 707.7865">Developed an ecommerce platform where visitors can search products by name or</tspan></text>
<text fill="#222222" xml:space="preserve" transform="matrix(.75 0 0 .75 0 -842.25)" font-size="13.33" font-family="PTSerif"><tspan y="1698" x="712.90628"> </tspan></text>
<text fill="#222222" xml:space="preserve" transform="matrix(.75 0 0 .75 0 -842.25)" font-size="13.33" font-family="PTSerif"><tspan y="1715" x="231.28125 237.49213 244.22281 249.16753 255.87155 262.88215 270.25257 275.59718 281.7813 285.01997 288.25868 292.81687 296.8286 300.84037 305.7851 312.48915 317.60713 320.84584 328.38954 333.5075 340.87794 348.27503 355.92536 362.1229 367.06764 372.83869 376.0774 383.10127 389.83195 393.07069 399.28157 406.01225 410.95698 417.661 424.67158 432.042 437.3866 444.11729 447.35603 454.0867 462.00358 469.40065 472.63935 480.18305 485.30104 489.31278 495.2837 501.98774 505.22645 510.34443 517.0751 524.99197 532.00259 538.7066 541.94528 545.18399 551.9147 559.31179 566.70889 569.9476 577.4913 582.60928 589.9797 597.3768 605.0271 611.2246 616.1693 621.94039 625.1791 630.1238 637.4942 640.7329 650.4357 654.4475 660.21859 668.0421 672.05386 676.06558 681.8366 686.7813 690.01998 693.25869 699.9894 707.3865">category, filter products by category and price range, add products to wishlist, add</tspan></text>
<text fill="#222222" xml:space="preserve" transform="matrix(.75 0 0 .75 0 -842.25)" font-size="13.33" font-family="PTSerif"><tspan y="1715" x="714.7969"> </tspan></text>
<text fill="#222222" xml:space="preserve" transform="matrix(.75 0 0 .75 0 -842.25)" font-size="13.33" font-family="PTSerif"><tspan y="1732" x="231.28125 238.82494 243.94292 251.31334 258.71043 266.36073 272.55827 277.503 283.27406 286.51277 291.45747 298.82789 302.0666 308.27748 315.00816 320.12614 325.07087 328.3095 331.54823 338.2789 346.19578 353.59284 356.83155 363.58888 367.60063 374.29133 383.99415 387.23286 394.77656 399.89454 407.26496 414.66206 422.31239 428.50993 433.45466 436.69337 444.09046 450.7945 455.7392 462.46989 466.48164 470.49339 476.26445">products to cart, and view product details.</tspan></text>
</g>
<g clip-path="url(#clip_52)">
<path transform="matrix(.14999999,0,0,.14999999,165.75,466.5)" d="M20 10C19.999999 11.326081 19.746264 12.601692 19.238793 13.826833 18.731322 15.051973 18.008748 16.133385 17.071066 17.071066 16.133385 18.008748 15.051973 18.731322 13.826833 19.238793 12.601692 19.746264 11.326081 19.999999 10 20 8.673917 19.999999 7.3983056 19.746264 6.173165 19.238793 4.9480249 18.731322 3.8666137 18.008748 2.928932 17.071066 1.99125 16.133385 1.2686743 15.051973 .76120457 13.826833 .25373484 12.601692 0 11.326081 0 10 0 8.673917 .25373484 7.3983056 .76120457 6.173165 1.2686743 4.9480249 1.99125 3.8666137 2.928932 2.928932 3.8666137 1.99125 4.9480249 1.2686743 6.173165 .76120457 7.3983056 .25373484 8.673917 0 10 0 11.326081 0 12.601692 .25373484 13.826833 .76120457 15.051973 1.2686743 16.133385 1.99125 17.071066 2.928932 18.008748 3.8666137 18.731322 4.9480249 19.238793 6.173165 19.746264 7.3983056 19.999999 8.673917 20 10Z" fill="#222222"/>
</g>
<g clip-path="url(#clip_53)">
<text fill="#ffffff" xml:space="preserve" transform="matrix(.75 0 0 .75 0 -842.25)" font-size="1" font-family="PTSerif"><tspan y="1751" x="231.28125">&#x2022;</tspan></text>
<text fill="#222222" xml:space="preserve" transform="matrix(.75 0 0 .75 0 -842.25)" font-size="13.33" font-family="PTSerif"><tspan y="1751" x="231.28125 235.97274 247.47487 255.01856 259.0303 265.7343 277.23646 283.9405 291.85737 296.80207 303.5061 310.9032 314.1419 321.79225 327.5633 334.26734 339.3853 342.62403 349.3547 357.005 361.9497 369.7733 376.4773 384.39418 389.33888 393.35063 399.5615 406.29219 411.23689 415.24864 422.61906 430.53593 433.77467 440.50535 448.4222 455.81929 459.05799 465.78868 473.43898 478.38368 486.20726 493.57765 498.69563 502.70738 509.2115 515.94216 520.88687 524.89859 532.269 540.18588 543.4245 546.6632 553.3939 557.40567 561.41738 568.6278 578.3306 582.3424 590.2593 597.2699 600.5086 605.6266 612.3306 619.3412 623.3529 629.12399 634.0687 640.77279 645.89077 652.5948 659.9919 663.2306 669.9613 677.8782">Implemented user authentication and authorization, allowing registered and</tspan></text>
<text fill="#222222" xml:space="preserve" transform="matrix(.75 0 0 .75 0 -842.25)" font-size="13.33" font-family="PTSerif"><tspan y="1751" x="685.28128"> </tspan></text>
<text fill="#222222" xml:space="preserve" transform="matrix(.75 0 0 .75 0 -842.25)" font-size="13.33" font-family="PTSerif"><tspan y="1768" x="231.28125 235.293 242.66342 249.674 256.68458 263.3886 270.7857 276.45014 280.46189 288.37876 291.6175 299.26783 305.03889 311.74293 316.8609 322.63197 325.87068 330.81538 338.1858 341.4245 348.9682 352.97996 359.71064 365.68159 372.38563 375.62434 382.99476 388.11274 395.50984 402.21388 407.33186 413.1029 416.34156 419.58027 426.3376 430.34934 437.04005 446.74287 449.98158 454.92628 462.74986 469.45387 473.4656 478.5836 481.82234 489.366 494.48399 501.8544 506.4126 510.42436 514.4361 521.14016 524.3788 527.6175 534.9879 540.1059 547.503 554.20706 559.325 562.5637 570.3873 574.39907 580.1701 585.1148 592.4852 597.82986 604.014 607.2526 610.49136 617.22207 625.1389 632.536 635.7747 643.42507 650.96878 658.36587 665.09658 670.04129 676.7453 679.984 687.5277 692.6457 700.0161 704.57437 708.58609 712.5978">logged-in users to place orders, view their profile, order history, and update profile</tspan></text>
<text fill="#222222" xml:space="preserve" transform="matrix(.75 0 0 .75 0 -842.25)" font-size="13.33" font-family="PTSerif"><tspan y="1768" x="719.3125"> </tspan></text>
<text fill="#222222" xml:space="preserve" transform="matrix(.75 0 0 .75 0 -842.25)" font-size="13.33" font-family="PTSerif"><tspan y="1785" x="231.28125 235.293 243.20987 247.52812 254.89855 260.01655 271.51869 278.24937 283.1941 287.20585 294.57627 302.49314">information.</tspan></text>
<text fill="#222222" xml:space="preserve" transform="matrix(.75 0 0 .75 0 -842.25)" font-size="13.33" font-family="PTSerif"><tspan y="1825" x="68.03125 75.13512 82.23898 86.82384 93.927707 101.03157 108.13544">05/2024</tspan></text>
<text fill="#222222" xml:space="preserve" transform="matrix(.75 0 0 .75 0 -842.25)" font-size="15.33" font-family="PTSerif" font-weight="bold"><tspan y="1825" x="219.28125 229.59706 237.8283 246.36609 251.45505 257.57099 262.65995 276.82319 285.0544">Realtime </tspan></text>
<text fill="#222222" xml:space="preserve" transform="matrix(.75 0 0 .75 0 -842.25)" font-size="15.33" font-family="PTSerif" font-weight="bold"><tspan y="1825" x="289.20314 299.19709 309.0071 317.54493">Chat</tspan></text>
</g>
<g clip-path="url(#clip_54)">
<path transform="matrix(.20735677,0,0,.20735677,247.78711,519.75)" d="M27 33H5C4.4477155 33 3.9763106 32.804738 3.585786 32.41421 3.195262 32.02369 2.9999998 31.552285 3 31V9C3 8.447715 3.1952623 7.9763109 3.5857867 7.5857865 3.976311 7.195262 4.4477155 7 5 7H15V9H5V31H27V21H29V31C28.999999 31.552285 28.804736 32.02369 28.414212 32.41421 28.023688 32.804738 27.552283 33 27 33Z" fill="#222222"/>
<path transform="matrix(.20735677,0,0,.20735677,247.78711,519.75)" d="M18 3C17.333334 3 17 3.3333333 17 4 17 4.6666667 17.333334 5 18 5H29.59L15.74 18.85C15.518712 19.039505 15.402447 19.279822 15.391202 19.570948 15.379956 19.862074 15.477339 20.110642 15.683349 20.316653 15.889359 20.522664 16.137928 20.620047 16.429055 20.6088 16.720179 20.597556 16.960495 20.481289 17.15 20.26L31 6.41V18C31 18.666666 31.333334 19 32 19 32.666669 19 33 18.666666 33 18V3H18Z" fill="#222222"/>
</g>
<g clip-path="url(#clip_55)">
<text fill="#222222" xml:space="preserve" transform="matrix(.75 0 0 .75 0 -842.25)" font-size="15.33" font-family="PTSerif" font-style="italic"><tspan y="1845" x="219.28125 222.91403">| </tspan></text>
<text fill="#222222" xml:space="preserve" transform="matrix(.75 0 0 .75 0 -842.25)" font-size="15.33" font-family="PTSerif" font-style="italic"><tspan y="1845" x="226.64063 237.72289 244.68187 251.64086 256.80647 260.9604 265.17564 271.58283 275.3075">Next.js, </tspan></text>
<text fill="#222222" xml:space="preserve" transform="matrix(.75 0 0 .75 0 -842.25)" font-size="15.33" font-family="PTSerif" font-style="italic"><tspan y="1845" x="279.04689 290.12916 297.08815 304.04713 308.61485 315.1293 323.3299 331.63777 336.80335 345.12654 348.8512">Next-auth, </tspan></text>
<text fill="#222222" xml:space="preserve" transform="matrix(.75 0 0 .75 0 -842.25)" font-size="15.33" font-family="PTSerif" font-style="italic"><tspan y="1845" x="352.57814 361.56044 369.8683 376.27546 384.59864 391.55763 397.45899 401.6129 405.82817 412.23536 415.96003">Pusher.js, </tspan></text>
<text fill="#222222" xml:space="preserve" transform="matrix(.75 0 0 .75 0 -842.25)" font-size="15.33" font-family="PTSerif" font-style="italic"><tspan y="1845" x="419.6875 429.4209 433.6668 441.46885 449.7767 457.9773 462.2232 470.68437 478.88496 484.78633 491.3927 495.11738">Cloudinary, </tspan></text>
<text fill="#222222" xml:space="preserve" transform="matrix(.75 0 0 .75 0 -842.25)" font-size="15.33" font-family="PTSerif" font-style="italic"><tspan y="1845" x="498.84376 511.97999 519.782 528.24319 535.73867 543.54067 551.34268 557.7498">Mongoose</tspan></text>
</g>
<g clip-path="url(#clip_56)">
<path transform="matrix(.14999999,0,0,.14999999,165.75,552)" d="M20 10C19.999999 11.326081 19.746264 12.601692 19.238793 13.826833 18.731322 15.051973 18.008748 16.133385 17.071066 17.071066 16.133385 18.008748 15.051973 18.731322 13.826833 19.238793 12.601692 19.746264 11.326081 19.999999 10 20 8.673917 19.999999 7.3983056 19.746264 6.173165 19.238793 4.9480249 18.731322 3.8666137 18.008748 2.928932 17.071066 1.99125 16.133385 1.2686743 15.051973 .76120457 13.826833 .25373484 12.601692 0 11.326081 0 10 0 8.673917 .25373484 7.3983056 .76120457 6.173165 1.2686743 4.9480249 1.99125 3.8666137 2.928932 2.928932 3.8666137 1.99125 4.9480249 1.2686743 6.173165 .76120457 7.3983056 .25373484 8.673917 0 10 0 11.326081 0 12.601692 .25373484 13.826833 .76120457 15.051973 1.2686743 16.133385 1.99125 17.071066 2.928932 18.008748 3.8666137 18.731322 4.9480249 19.238793 6.173165 19.746264 7.3983056 19.999999 8.673917 20 10Z" fill="#222222"/>
</g>
<g clip-path="url(#clip_57)">
<text fill="#ffffff" xml:space="preserve" transform="matrix(.75 0 0 .75 0 -842.25)" font-size="1" font-family="PTSerif"><tspan y="1865" x="231.28125">&#x2022;</tspan></text>
<text fill="#222222" xml:space="preserve" transform="matrix(.75 0 0 .75 0 -842.25)" font-size="13.33" font-family="PTSerif"><tspan y="1865" x="231.28125 234.51998 243.95626 250.42034 256.93775 263.64179 267.65354 275.02397 282.56764 289.27168 296.66877 299.90748 306.63816 309.8769 314.99488 321.6989 328.4296 332.44136 338.10578 343.05049 347.06224 358.56437 365.26838 368.50709 374.71797 382.54154 389.27223 394.21693 397.45564 404.1863 411.72999 419.27369 423.28544 427.29719 433.50807 440.23875 445.18348 449.19523 456.56565 464.4825 467.72126 477.42408 485.24766 491.95167 497.06965 503.77369 507.0124 513.74307 521.3933 526.338 534.1616 540.8656 548.7825 553.7272 557.7389 563.94979 570.6804 575.6251 582.32919 589.72628 592.96499 600.6153 606.38638 613.0904 618.2084 623.97946 627.21817 633.429 640.15969 648.07656 651.3153 655.327 663.2439 667.2556 672.2003 676.21206 682.94277 687.88748"> Developed a real-time chat application where authenticated users can initiate</tspan></text>
<text fill="#222222" xml:space="preserve" transform="matrix(.75 0 0 .75 0 -842.25)" font-size="13.33" font-family="PTSerif"><tspan y="1865" x="694.59378"> </tspan></text>
<text fill="#222222" xml:space="preserve" transform="matrix(.75 0 0 .75 0 -842.25)" font-size="13.33" font-family="PTSerif"><tspan y="1882" x="231.28125 238.82494 245.52896 250.64694 256.418 263.78843 271.7053 278.43598 282.44773 285.68647 293.0569 298.17488 301.41358 308.42414 313.5421 320.91255 328.56288 336.10658 339.34529 345.55616 353.37974 360.1104 365.0551 370.82618 374.06489 381.08876 387.81944 391.05818 396.82923 403.53327 407.545 414.24903 420.44657 425.3913 429.40306 437.31993 444.3305 447.5692 453.54017 460.91059 468.82746 473.77217 480.50285 486.70039 491.64509 497.41615">personal or group chats by selecting contacts.</tspan></text>
</g>
<g clip-path="url(#clip_58)">
<path transform="matrix(.14999999,0,0,.14999999,165.75,579)" d="M20 10C19.999999 11.326081 19.746264 12.601692 19.238793 13.826833 18.731322 15.051973 18.008748 16.133385 17.071066 17.071066 16.133385 18.008748 15.051973 18.731322 13.826833 19.238793 12.601692 19.746264 11.326081 19.999999 10 20 8.673917 19.999999 7.3983056 19.746264 6.173165 19.238793 4.9480249 18.731322 3.8666137 18.008748 2.928932 17.071066 1.99125 16.133385 1.2686743 15.051973 .76120457 13.826833 .25373484 12.601692 0 11.326081 0 10 0 8.673917 .25373484 7.3983056 .76120457 6.173165 1.2686743 4.9480249 1.99125 3.8666137 2.928932 2.928932 3.8666137 1.99125 4.9480249 1.2686743 6.173165 .76120457 7.3983056 .25373484 8.673917 0 10 0 11.326081 0 12.601692 .25373484 13.826833 .76120457 15.051973 1.2686743 16.133385 1.99125 17.071066 2.928932 18.008748 3.8666137 18.731322 4.9480249 19.238793 6.173165 19.746264 7.3983056 19.999999 8.673917 20 10Z" fill="#222222"/>
</g>
<g clip-path="url(#clip_59)">
<text fill="#ffffff" xml:space="preserve" transform="matrix(.75 0 0 .75 0 -842.25)" font-size="1" font-family="PTSerif"><tspan y="1901" x="231.28125">&#x2022;</tspan></text>
<text fill="#222222" xml:space="preserve" transform="matrix(.75 0 0 .75 0 -842.25)" font-size="13.33" font-family="PTSerif"><tspan y="1901" x="231.28125 235.97274 247.47487 255.01856 259.0303 265.7343 277.23646 283.9405 291.85737 296.80207 303.5061 310.9032 314.1419 321.79225 327.5633 334.26734 339.3853 342.62403 350.16773 355.2857 362.65614 367.21434 371.22608 375.23783 381.94184 385.18055 392.83088 400.37458 407.77168 414.50236 419.44709 426.15113 431.92219 435.16084 438.39955 442.4113 450.32817 456.53904 460.55079 468.2011 475.5982 479.60997 487.52684 494.53739 497.7761 505.69297 512.42367 523.9258 530.62979 533.86849 540.5991 548.516 555.9131 559.1518 563.1636 574.6657 581.39639 588.4069 595.11099 598.3497 604.56057 612.38418 619.11489 627.03176 634.0423 640.74636 646.5174 649.70278 652.9415 662.11129 667.22927 674.5997 682.25">Implemented user profile updates, including name and image changes. Group</tspan></text>
<text fill="#222222" xml:space="preserve" transform="matrix(.75 0 0 .75 0 -842.25)" font-size="13.33" font-family="PTSerif"><tspan y="1901" x="689.7969"> </tspan></text>
<text fill="#222222" xml:space="preserve" transform="matrix(.75 0 0 .75 0 -842.25)" font-size="13.33" font-family="PTSerif"><tspan y="1918" x="231.28125 238.82494 245.55562 250.6736 255.61832 259.63008 265.84095 269.8527 277.39637 284.12705 292.0439 296.98866 302.7597 305.9984 312.2093 318.93998 326.85685 330.09559 337.7459 345.2896 352.6867 359.4174 364.36213 371.06617 374.30488 381.31544 386.4334 393.80384 401.45417 408.99787 412.23658 419.78028 424.89826 432.26869 436.82688 440.83863 444.85038 451.55439 454.7931 458.80485 470.30699 477.03767 484.04823 490.75224 493.99095 500.72163 508.6385 516.0355 519.27426 527.1911 533.92178 545.4239 552.1279">participants can update group profile image and name.</tspan></text>
</g>
<g clip-path="url(#clip_60)">
<path transform="matrix(.14999999,0,0,.14999999,165.75,606)" d="M20 10C19.999999 11.326081 19.746264 12.601692 19.238793 13.826833 18.731322 15.051973 18.008748 16.133385 17.071066 17.071066 16.133385 18.008748 15.051973 18.731322 13.826833 19.238793 12.601692 19.746264 11.326081 19.999999 10 20 8.673917 19.999999 7.3983056 19.746264 6.173165 19.238793 4.9480249 18.731322 3.8666137 18.008748 2.928932 17.071066 1.99125 16.133385 1.2686743 15.051973 .76120457 13.826833 .25373484 12.601692 0 11.326081 0 10 0 8.673917 .25373484 7.3983056 .76120457 6.173165 1.2686743 4.9480249 1.99125 3.8666137 2.928932 2.928932 3.8666137 1.99125 4.9480249 1.2686743 6.173165 .76120457 7.3983056 .25373484 8.673917 0 10 0 11.326081 0 12.601692 .25373484 13.826833 .76120457 15.051973 1.2686743 16.133385 1.99125 17.071066 2.928932 18.008748 3.8666137 18.731322 4.9480249 19.238793 6.173165 19.746264 7.3983056 19.999999 8.673917 20 10Z" fill="#222222"/>
</g>
<g clip-path="url(#clip_61)">
<text fill="#ffffff" xml:space="preserve" transform="matrix(.75 0 0 .75 0 -842.25)" font-size="1" font-family="PTSerif"><tspan y="1937" x="231.28125">&#x2022;</tspan></text>
<text fill="#222222" xml:space="preserve" transform="matrix(.75 0 0 .75 0 -842.25)" font-size="13.33" font-family="PTSerif"><tspan y="1937" x="231.28125 235.97274 243.8896 248.83432 255.53835 262.54893 267.6669 274.39759 279.3423 286.04634 293.44343 296.68214 302.4532 309.15724 315.8879 321.0059 327.21678 335.04035 338.27906 342.83726 350.48756 358.40443 364.60197 369.5467 373.55845 380.92887 388.84574 395.57643 399.58818 403.5999 408.5313 415.262 418.50074 422.81898 430.1894 435.30738 438.54609 444.51704 451.88746 459.80433 464.74903 471.4797 477.67726 482.62196 488.393 491.6317 498.3624 506.27928 513.67636 516.91506 523.1259 530.94949 537.6802 542.6249 548.39596 551.6346 554.8733 562.2704 566.2821 572.05319 579.5968 583.6085 590.33926 597.06997 601.08169 608.99856 616.0091 619.2478 626.7915 631.9095 638.37356 645.13088 649.1426 656.513 664.1633">Integrated search functionality for contacts and chats, displaying previous</tspan></text>
<text fill="#222222" xml:space="preserve" transform="matrix(.75 0 0 .75 0 -842.25)" font-size="13.33" font-family="PTSerif"><tspan y="1937" x="669.9375"> </tspan></text>
<text fill="#222222" xml:space="preserve" transform="matrix(.75 0 0 .75 0 -842.25)" font-size="13.33" font-family="PTSerif"><tspan y="1954" x="231.28125 242.78339 249.48741 255.25847 261.02955 267.76023 274.7708 281.47486 287.2459 290.48463 298.13496 305.67866 313.04908 320.96595 324.20466 330.41554 338.2391 344.9698 349.9145 353.1532 358.92427 365.6283 369.64006 376.34407 382.5416 387.48634 391.49809 398.8685 406.78538 409.9707 413.2094 420.96638 428.88325 435.61393 442.87773 446.88948 453.5935 460.9906 464.2293 470.00038 476.7044 484.62129 492.01838 496.03013 503.947 510.95759 514.1963 519.141 525.6051 532.52236 537.46707 540.70578 547.4364 555.3533 562.75039 565.9891 570.00088 581.503 588.23367 595.2442 601.94827 605.18698 616.6891 623.3931 629.1642 634.93527 641.6659 648.6765 655.38058 661.1516 664.3903 668.4021 676.319 679.55776 684.6757 691.37979 698.1105 702.1222">messages upon chat selection. Enabled sending text and image messages in real-</tspan></text>
<text fill="#222222" xml:space="preserve" transform="matrix(.75 0 0 .75 0 -842.25)" font-size="13.33" font-family="PTSerif"><tspan y="1971" x="231.28125 236.22597 240.23772 251.73986 258.44389 261.68263 271.38545 275.3972 280.34193 288.1655 291.40425 296.34895 304.17253 310.87654 314.11524 318.12699 324.85768 330.62873 335.57344 338.81214 350.31428 357.0183 362.78938 368.56044 375.2911 382.3017 389.00575 392.24446 399.64155 403.6533 409.42436 416.96803 420.97978 427.71046 434.20118 440.9052 448.3023 451.54103 458.2717 463.21644 466.45515 471.39985 479.22343 485.92744 489.16615 496.42994 503.65373 508.58509 513.5298 520.9002 532.40237 535.64108 543.0115 547.5697 550.8085 555.7532 563.5768 570.28079 573.5195 579.73037 587.55398 594.28469 599.2294 606.49319 613.7036 620.62088">time with the last message displayed at the bottom of the chatbox.</tspan></text>
<text fill="#222222" xml:space="preserve" transform="matrix(.75 0 0 .75 0 -842.25)" font-size="13.33" font-family="PTSerif"><tspan y="2011" x="68.03125 75.13512 82.23898 86.82384 93.927707 101.03157 108.13544">04/2024</tspan></text>
<text fill="#222222" xml:space="preserve" transform="matrix(.75 0 0 .75 0 -842.25)" font-size="15.33" font-family="PTSerif" font-weight="bold"><tspan y="2011" x="219.28125 229.22924 234.31819 243.42313 252.0682">Blog </tspan></text>
<text fill="#222222" xml:space="preserve" transform="matrix(.75 0 0 .75 0 -842.25)" font-size="15.33" font-family="PTSerif" font-weight="bold"><tspan y="2011" x="256.21876 267.393 276.72785">App</tspan></text>
</g>
<g clip-path="url(#clip_62)">
<path transform="matrix(.20735677,0,0,.20735677,219.28711,659.25)" d="M27 33H5C4.4477155 33 3.9763106 32.804738 3.585786 32.41421 3.195262 32.02369 2.9999998 31.552285 3 31V9C3 8.447715 3.1952623 7.9763109 3.5857867 7.5857865 3.976311 7.195262 4.4477155 7 5 7H15V9H5V31H27V21H29V31C28.999999 31.552285 28.804736 32.02369 28.414212 32.41421 28.023688 32.804738 27.552283 33 27 33Z" fill="#222222"/>
<path transform="matrix(.20735677,0,0,.20735677,219.28711,659.25)" d="M18 3C17.333334 3 17 3.3333333 17 4 17 4.6666667 17.333334 5 18 5H29.59L15.74 18.85C15.518712 19.039505 15.402447 19.279822 15.391202 19.570948 15.379956 19.862074 15.477339 20.110642 15.683349 20.316653 15.889359 20.522664 16.137928 20.620047 16.429055 20.6088 16.720179 20.597556 16.960495 20.481289 17.15 20.26L31 6.41V18C31 18.666666 31.333334 19 32 19 32.666669 19 33 18.666666 33 18V3H18Z" fill="#222222"/>
</g>
<g clip-path="url(#clip_63)">
<text fill="#222222" xml:space="preserve" transform="matrix(.75 0 0 .75 0 -842.25)" font-size="15.33" font-family="PTSerif" font-style="italic"><tspan y="2031" x="219.28125 222.91403">| </tspan></text>
<text fill="#222222" xml:space="preserve" transform="matrix(.75 0 0 .75 0 -842.25)" font-size="15.33" font-family="PTSerif" font-style="italic"><tspan y="2031" x="226.64063 237.72289 244.68187 251.64086 256.80647 260.9604 265.17564 271.58283 275.3075">Next.js, </tspan></text>
<text fill="#222222" xml:space="preserve" transform="matrix(.75 0 0 .75 0 -842.25)" font-size="15.33" font-family="PTSerif" font-style="italic"><tspan y="2031" x="279.04689 290.12916 297.08815 304.04713 308.61485 315.1293 323.3299 331.63777 336.80335 345.12654 348.8512">Next-auth, </tspan></text>
<text fill="#222222" xml:space="preserve" transform="matrix(.75 0 0 .75 0 -842.25)" font-size="15.33" font-family="PTSerif" font-style="italic"><tspan y="2031" x="352.57814 361.56044 367.4618 371.7077 378.11488 390.3774 398.578 402.30268">Prisma, </tspan></text>
<text fill="#222222" xml:space="preserve" transform="matrix(.75 0 0 .75 0 -842.25)" font-size="15.33" font-family="PTSerif" font-style="italic"><tspan y="2031" x="406.03126 419.16749 427.36805 433.2694 440.4583 448.65888 456.4609 466.99137 475.4525 479.1772">Markdown, </tspan></text>
<text fill="#222222" xml:space="preserve" transform="matrix(.75 0 0 .75 0 -842.25)" font-size="15.33" font-family="PTSerif" font-style="italic"><tspan y="2031" x="482.90626 490.9842 505.16276 514.7735 518.49819">SWR, </tspan></text>
<text fill="#222222" xml:space="preserve" transform="matrix(.75 0 0 .75 0 -842.25)" font-size="15.33" font-family="PTSerif" font-style="italic"><tspan y="2031" x="522.2344 535.3706 543.1726 551.6338 559.1293 566.9313 574.7333 581.14047">Mongoose</tspan></text>
</g>
<g clip-path="url(#clip_64)">
<path transform="matrix(.14999999,0,0,.14999999,165.75,691.5)" d="M20 10C19.999999 11.326081 19.746264 12.601692 19.238793 13.826833 18.731322 15.051973 18.008748 16.133385 17.071066 17.071066 16.133385 18.008748 15.051973 18.731322 13.826833 19.238793 12.601692 19.746264 11.326081 19.999999 10 20 8.673917 19.999999 7.3983056 19.746264 6.173165 19.238793 4.9480249 18.731322 3.8666137 18.008748 2.928932 17.071066 1.99125 16.133385 1.2686743 15.051973 .76120457 13.826833 .25373484 12.601692 0 11.326081 0 10 0 8.673917 .25373484 7.3983056 .76120457 6.173165 1.2686743 4.9480249 1.99125 3.8666137 2.928932 2.928932 3.8666137 1.99125 4.9480249 1.2686743 6.173165 .76120457 7.3983056 .25373484 8.673917 0 10 0 11.326081 0 12.601692 .25373484 13.826833 .76120457 15.051973 1.2686743 16.133385 1.99125 17.071066 2.928932 18.008748 3.8666137 18.731322 4.9480249 19.238793 6.173165 19.746264 7.3983056 19.999999 8.673917 20 10Z" fill="#222222"/>
</g>
<g clip-path="url(#clip_65)">
<text fill="#ffffff" xml:space="preserve" transform="matrix(.75 0 0 .75 0 -842.25)" font-size="1" font-family="PTSerif"><tspan y="2051" x="231.28125">&#x2022;</tspan></text>
<text fill="#222222" xml:space="preserve" transform="matrix(.75 0 0 .75 0 -842.25)" font-size="13.33" font-family="PTSerif"><tspan y="2051" x="231.28125 235.97274 247.47487 255.01856 259.0303 265.7343 277.23646 283.9405 291.85737 296.80207 303.5061 310.9032 314.1419 323.31166 330.68208 338.0525 345.06306 349.0748 355.7788 359.01753 365.7482 373.3985 378.3432 386.16679 392.8708 400.78767 405.73237 409.7441 415.955 422.68568 427.63038 431.64213 439.01255 446.9294 450.16816 454.4864 461.8568 466.9748 470.2135 477.86384 483.6349 490.33894 495.4569 498.69566 502.7074 510.07783 517.0884 521.1001 529.01699">Implemented Google authentication for user login.</tspan></text>
</g>
<g clip-path="url(#clip_66)">
<path transform="matrix(.14999999,0,0,.14999999,165.75,705.75)" d="M20 10C19.999999 11.326081 19.746264 12.601692 19.238793 13.826833 18.731322 15.051973 18.008748 16.133385 17.071066 17.071066 16.133385 18.008748 15.051973 18.731322 13.826833 19.238793 12.601692 19.746264 11.326081 19.999999 10 20 8.673917 19.999999 7.3983056 19.746264 6.173165 19.238793 4.9480249 18.731322 3.8666137 18.008748 2.928932 17.071066 1.99125 16.133385 1.2686743 15.051973 .76120457 13.826833 .25373484 12.601692 0 11.326081 0 10 0 8.673917 .25373484 7.3983056 .76120457 6.173165 1.2686743 4.9480249 1.99125 3.8666137 2.928932 2.928932 3.8666137 1.99125 4.9480249 1.2686743 6.173165 .76120457 7.3983056 .25373484 8.673917 0 10 0 11.326081 0 12.601692 .25373484 13.826833 .76120457 15.051973 1.2686743 16.133385 1.99125 17.071066 2.928932 18.008748 3.8666137 18.731322 4.9480249 19.238793 6.173165 19.746264 7.3983056 19.999999 8.673917 20 10Z" fill="#222222"/>
</g>
<g clip-path="url(#clip_67)">
<text fill="#ffffff" xml:space="preserve" transform="matrix(.75 0 0 .75 0 -842.25)" font-size="1" font-family="PTSerif"><tspan y="2070" x="231.28125">&#x2022;</tspan></text>
<text fill="#222222" xml:space="preserve" transform="matrix(.75 0 0 .75 0 -842.25)" font-size="13.33" font-family="PTSerif"><tspan y="2070" x="231.28125 240.71753 247.18161 253.699 260.403 264.41477 271.7852 279.32887 286.0329 293.43 296.6687 303.39939 306.63813 313.90193 317.91368 325.2841 332.29469 335.5334 342.26408 349.80775 357.35145 361.3632 365.37495 371.58583 378.3165 383.26124 387.27299 394.6434 402.56028 405.799 415.50184 423.3254 430.02943 435.1474 441.85145 445.09016 451.82084 459.47114 464.41584 472.2394 478.94343 486.8603 491.805 495.81675 502.02763 508.7583 513.703 520.40707 527.80416 531.04287 538.6932 544.46426 551.1683 556.28628 562.0573 565.296 571.5069 578.23757 586.1544 589.3932 596.1505 600.16226 606.8529 616.5557 619.79446 626.52517 630.53689 634.5486 637.78738 645.33108 652.7015 658.47256 663.41726 669.1883">Developed a blog application where authenticated users can view all posts,</tspan></text>
<text fill="#222222" xml:space="preserve" transform="matrix(.75 0 0 .75 0 -842.25)" font-size="13.33" font-family="PTSerif"><tspan y="2070" x="672.4375"> </tspan></text>
<text fill="#222222" xml:space="preserve" transform="matrix(.75 0 0 .75 0 -842.25)" font-size="13.33" font-family="PTSerif"><tspan y="2087" x="231.28125 237.49213 244.22281 249.16753 255.87155 262.88215 270.25257 275.37055 279.3823 286.0863 291.85737 295.096 298.33473 305.87843 313.24885 319.0199 323.9646 327.2033 334.6004 341.30445 346.24916 352.97984 356.99159 361.00334 366.77439 370.01304 373.25178 379.98246 387.37953 394.7766 398.01533 403.98628 411.3567 422.85884 434.36097 441.065 448.98188 453.92658 459.69764 462.93629 466.175 475.8778 480.9958 485.00755 489.95225 496.65629 499.895 507.4387 514.8091 520.58016 525.52487 531.2959 534.53457 537.77328 544.5039 552.4208 559.8179 563.0566 570.7069 578.2506 582.2623 589.63278 596.3634 603.7605 606.9992 611.5574 615.5691 619.5808 626.2848 632.05587 635.29458 640.23928 647.6097 650.8484 658.0989 662.1106 667.2286 673.9326 681.1964 687.9271 693.6982 700.4022">categories, post details, add comments, write posts, and upload files to Firebase.</tspan></text>
<g opacity=".7">
<g clip-path="url(#clip_68)">
<text fill="#222222" xml:space="preserve" transform="matrix(.75 0 0 .75 0 -842.24996)" font-size="13.33" font-family="PTSerif"><tspan y="2220" x="68.03125 79.586688 86.983768 90.1691 93.40782 104.96326 111.69394 117.465 125.11531 132.51239 135.75112 145.45395 152.82437 158.59543 164.36649 171.07051">Md. Masud Hossen</tspan></text>
<text fill="#222222" xml:space="preserve" transform="matrix(.75 0 0 .75 0 -842.24996)" font-size="13.33" font-family="PTSerif"><tspan y="2220" x="319.10939 330.6115 337.3422 343.11326 350.76356 358.16065 365.26454 372.3684 376.08695 383.35075 391.00105 398.54475 412.72584 419.7364 431.23854 437.9692 441.98097 445.9927 449.71125 455.6822 463.0526">masud20.bup@gmail.com</tspan></text>
<text fill="#222222" xml:space="preserve" transform="matrix(.75 0 0 .75 0 -842.24996)" font-size="13.33" font-family="PTSerif"><tspan y="2220" x="700.3594 707.46328 710.70199 715.2868 718.5255">2 / 2</tspan></text>
</g>
</g>
</g>
</g>
</svg>
