<svg xmlns="http://www.w3.org/2000/svg" xmlns:xlink="http://www.w3.org/1999/xlink" version="1.1" width="612pt" height="792pt" viewBox="0 0 612 792">
<text xml:space="preserve" transform="matrix(1 0 -0 1 0 792)" font-size="11.9552" font-family="NotoSans" font-weight="bold"><tspan y="-746.037" x="36 47.273756 54.841398 61.87105 73.144809 80.365749 86.30748 94.16205 104.83804 113.98377 121.38404 127.325778 133.26752 140.33304">Md.MasudHossen</tspan></text>
<text xml:space="preserve" transform="matrix(1 0 -0 1 0 792)" font-size="9.9626" font-family="NotoSans" font-style="italic"><tspan y="-734.082" x="36 44.378549 46.9489 50.914014 56.682359 62.450704 65.22031 70.36101 77.006069 82.774417 88.433177 93.36466">Mirpur,Dhaka</tspan></text>
<text xml:space="preserve" transform="matrix(1 0 -0 1 0 792)" font-size="9.9626" font-family="CMSY10" font-style="italic"><tspan y="-734.082" x="101.614">|</tspan></text>
<text xml:space="preserve" transform="matrix(1 0 -0 1 0 792)" font-size="9.9626" font-family="NotoSans" font-style="italic"><tspan y="-734.082" x="106.972 112.461399 117.95079 123.440189 128.92958 134.41898 139.90837 145.39777 150.88716 156.37656 161.86595">01707980173</tspan></text>
<text xml:space="preserve" transform="matrix(1 0 -0 1 0 792)" font-size="9.9626" font-family="CMSY10" font-style="italic"><tspan y="-734.082" x="169.945">|</tspan></text>
<text xml:space="preserve" transform="matrix(1 0 -0 1 0 792)" font-size="9.9626" font-family="NotoSans" font-style="italic"><tspan y="-734.082" x="175.30301 184.02028 189.67903 193.98288 199.75122 205.51956 211.00896 216.49835 219.04878 224.81713 230.58547 236.3538 244.8021 250.57044 259.28773 264.94648 267.5168 270.08717 272.63758 277.15065 282.75959">masud20.bup@gmail.com</tspan></text>
<text xml:space="preserve" transform="matrix(1 0 -0 1 0 792)" font-size="9.9626" font-family="CMSY10" font-style="italic"><tspan y="-734.082" x="294.068">|</tspan></text>
<text fill="#0000ff" xml:space="preserve" transform="matrix(1 0 -0 1 0 792)" font-size="9.9626" font-family="NotoSans" font-style="italic"><tspan y="-734.082" x="299.425 305.0738 310.68275 314.64787 317.95545 321.12358 326.7325 329.30287 331.8732">Portfolio</tspan></text>
<text xml:space="preserve" transform="matrix(1 0 -0 1 0 792)" font-size="9.9626" font-family="CMSY10" font-style="italic"><tspan y="-734.082" x="340.073">|</tspan></text>
<text fill="#0000ff" xml:space="preserve" transform="matrix(1 0 -0 1 0 792)" font-size="9.9626" font-family="NotoSans" font-style="italic"><tspan y="-734.082" x="345.43 350.1921 352.76246 358.5308 363.26304 368.23439 374.00273 376.57307">Linkedin</tspan></text>
<text xml:space="preserve" transform="matrix(1 0 -0 1 0 792)" font-size="9.9626" font-family="CMSY10" font-style="italic"><tspan y="-734.082" x="384.932">|</tspan></text>
<text fill="#0000ff" xml:space="preserve" transform="matrix(1 0 -0 1 0 792)" font-size="9.9626" font-family="NotoSans" font-style="italic"><tspan y="-734.082" x="390.29 397.04466 399.615 402.92259 408.69093 414.45927">Github</tspan></text>
<text xml:space="preserve" transform="matrix(1 0 -0 1 0 792)" font-size="11.9552" font-family="NotoSans"><tspan y="-718.073" x="36 43.639375 49.736528 55.0805 61.392847 69.9169 77.47259 85.60213 92.24922 98.190959 104.06096 109.40493 115.50208 120.85801 124.336978 129.75269">AreasofExpertise</tspan></text>
<path transform="matrix(1,0,0,-1,36,78.310977)" stroke-width=".398" stroke-linecap="butt" stroke-miterlimit="10" stroke-linejoin="miter" fill="none" stroke="#000000" d="M0 0H540"/>
<text xml:space="preserve" transform="matrix(1 0 -0 1 0 792)" font-size="9.9626" font-family="NotoSans" font-weight="bold"><tspan y="-700.013" x="46.8 53.05651 57.38028 63.54713 69.853458 74.17722 80.19463 89.977909 99.76118 102.79977 109.34519 118.2418 123.87067 129.88808 136.4335 142.73983 149.28525 155.30266 161.60898 167.49687 172.44829">ProgrammingLanguages:</tspan></text>
<text xml:space="preserve" transform="matrix(1 0 -0 1 0 792)" font-size="9.9626" font-family="NotoSans"><tspan y="-700.013" x="178.309 185.6913 191.2305 200.26657 205.48697 210.74723 217.04358 222.51305 227.98252 233.24277 235.96256 241.55158 246.61258 252.2016 257.67109 262.45314 266.5677 269.13804 275.265 278.8615 284.12178 289.46174 294.54267 300.66969 306.28858 311.75807 316.5401 320.65467 323.225 329.352 332.9485 338.20875 344.2361 349.31706 352.91355 359.07044 365.0978 371.2547 376.51496 382.8113 388.50993">HTML,CSS,JavaScript,TypeScript,Python,C++</tspan></text>
<text xml:space="preserve" transform="matrix(1 0 -0 1 0 792)" font-size="9.9626" font-family="NotoSans" font-weight="bold"><tspan y="-688.058" x="46.800004 52.26947 56.59324 62.76009 69.30552 73.62929 76.83724 82.725139 89.27056 98.16717 103.23814 109.12603 114.2468 120.79223 127.337657 133.5045 136.54309 142.70995 149.01627 152.05486 157.94275 162.89417">Front-endTechnologies:</tspan></text>
<text xml:space="preserve" transform="matrix(1 0 -0 1 0 792)" font-size="9.9626" font-family="NotoSans"><tspan y="-688.058" x="168.755 174.95174 180.57065 186.15967 190.94171 194.53821 197.20819 199.77855 204.55063 209.81089 217.38246 222.80213 228.07234 231.66884 234.33882 236.90918 241.68126 246.94152 253.13825 258.75715 264.88417 271.04106 278.90153 283.74336 289.77073 295.7981 298.36845 303.68849 306.25883 309.85533 315.11558 319.8578 325.4468 328.01716 330.5875 338.4181 340.98844 347.14533 355.8626 362.15898 367.62846">React.js,Next.js,ReduxToolkit,TailwindCSS</tspan></text>
<text xml:space="preserve" transform="matrix(1 0 -0 1 0 792)" font-size="9.9626" font-family="NotoSans" font-weight="bold"><tspan y="-676.102" x="46.800004 53.49487 59.51228 64.63306 70.80987 74.01782 79.905719 86.45114 95.34775 100.41872 106.30661 111.42738 117.97281 124.518238 130.68509 133.72368 139.89054 146.19686 149.23545 155.12334 160.07476">Back-endTechnologies:</tspan></text>
<text xml:space="preserve" transform="matrix(1 0 -0 1 0 792)" font-size="9.9626" font-family="NotoSans"><tspan y="-676.102" x="165.936 173.50759 179.53496 185.66196 191.28087 193.95085 196.52121 201.29329 206.55355 212.09275 217.36296 223.48996 227.40526 233.02417 237.79625 242.56833 245.23831 247.80867 252.58075 257.841 266.87709 272.90446 279.06135 285.18836 291.21574 298.48844 304.86448 310.12474 319.1608 324.24174 329.7112 337.492">Node.js,Express.js,MongoDB,MySQL</tspan></text>
<text xml:space="preserve" transform="matrix(1 0 -0 1 0 792)" font-size="9.9626" font-family="NotoSans" font-weight="bold"><tspan y="-664.147" x="46.800004 51.870965 58.037817 64.204669 67.243259 74.78495 84.847179 91.10369 94.14228 100.15969 104.48346 108.33899 114.50584 119.028858 128.81214 133.76355">Tools&#x0026;Platforms:</tspan></text>
<text xml:space="preserve" transform="matrix(1 0 -0 1 0 792)" font-size="9.9626" font-family="NotoSans"><tspan y="-664.147" x="139.624 146.87677 149.44713 153.04363 158.30388 165.55666 168.12702 171.72351 179.1058 185.2627 191.3897 196.64995 200.02727 206.18416 210.95624 216.98361 226.29865 232.45554 235.0259 240.61492 245.87517 251.90254 257.9299 262.702 266.2985 275.61354 281.20256 287.35945 292.6197 298.08918 305.91978 311.5088 317.6358 323.76283 329.3817">Git,GitHub,Insomnia,Postman,Swagger</tspan></text>
<text xml:space="preserve" transform="matrix(1 0 -0 1 0 792)" font-size="11.9552" font-family="NotoSans"><tspan y="-650.12997" x="35.999994 43.232889 49.33004 56.885728 61.90691 67.250888 72.66659 78.08229 81.56126 89.11694 96.56503 102.87738 111.23407 117.79748 124.922779 133.7218 142.52083 148.83318 154.93033">ProfessionalSummary</tspan></text>
<path transform="matrix(1,0,0,-1,36,146.25299)" stroke-width=".398" stroke-linecap="butt" stroke-miterlimit="10" stroke-linejoin="miter" fill="none" stroke="#000000" d="M0 0H540"/>
<text xml:space="preserve" transform="matrix(1 0 -0 1 0 792)" font-size="9.9626" font-family="NotoSans"><tspan y="-635.059" x="46.8 52.827375 56.742677 62.77005 65.76879 68.76753 73.54958 76.119937 81.73884 87.89572 94.0825 99.25309 103.168399 109.19577 115.35266 118.94916 122.15711 127.77602 133.9329 142.65018 151.71614 157.33506 166.05233 173.32503 178.74469 183.8057 189.4246 191.99497 198.02234 204.14934 209.76825 216.47307 224.30367 226.87403 230.47052 239.21768 244.91629 253.20517 258.2861 263.905 269.49403 273.60859 280.97096 286.99833 293.01573 298.43537 303.70558 309.83259 315.45149 319.56605 322.13639 327.75529 333.91218 338.6942 346.90339 349.47373 358.2209 364.3479 369.9668 374.7389 377.30924 383.43623 389.5931 392.16346 398.32035 407.0376 412.0986 414.66896 419.44105 425.59794 431.18696 433.7573 436.32765 443.99885 449.58787 455.71485 461.84187 467.46076 473.04978 475.62013 478.19047 484.34736 493.06465 498.65367 504.81056 513.52786 519.6847 524.4568 530.0757 534.19027 537.3982 540.8253 544.9399 547.51028 553.12918 559.286 565.413 567.9834">ProficientFront-endWebDeveloperwith1+yearsofexperienceindesigningvisuallyappealinganduser-friendly</tspan><tspan y="-623.104" x="46.8 54.630605 60.24951 66.37651 71.1486 73.71895 77.315448 82.93435 90.296718 95.885738 102.04262 110.759899 118.5905 124.209407 132.92667 138.51569 144.64269 150.76969 153.34004 155.9104 160.69245 166.28147 169.87796 172.44832 178.4757 184.63259 189.40467 195.0933 200.56278 205.8828 208.45316 211.02352 213.59387 219.21279 227.93006 230.50041 239.24758 246.62987 252.16907 261.20515 266.42555 271.6858 277.98216 283.45164 288.9211 294.18138 296.90116 302.49018 307.55119 313.1402 318.60969 323.39173 327.5063 330.07664 336.2036 339.8001 345.06037 351.2571 356.876 362.46504 367.24708 370.84358 373.56336 379.03285 384.2931 389.8821 396.039 404.7563 412.32786 417.7475 423.0177 426.6142 429.28419 431.85453 436.62663 442.32524 448.6913 454.8183 460.4372 466.5642 472.75099 478.34 484.52677 489.3088 493.22413 498.84303 504.43205 508.02854 510.59889 516.75576 525.473 529.3883 535.0072 541.16409 545.93618 551.52517 557.65219 560.22256">websitesandwebapplications.SkilledinHTML,CSS,JavaScript,ReactJS,andNext.js.Adeptatcreatingreusable</tspan><tspan y="-611.149" x="46.8 51.582048 57.60942 66.92445 73.05145 79.07883 85.23572 90.85462 97.011508 100.608 107.97037 111.3975 117.42487 124.12971 129.74861 132.89015 136.0317 139.17324 143.95528 146.52564 152.14455 158.30144 164.4882 170.6152 176.03487 181.09587 186.71479 189.28514 195.31252 201.43952 210.75455 216.37346 222.53035 228.71712 234.30614 240.46303 249.1803 255.3073 261.46418 264.03453 266.60487 272.73188 275.30223 281.4591 290.1764 295.64588 301.1851 308.96589 312.17384 315.60096 319.7155 322.28587 327.90476 334.06166 340.18867 342.759 347.44145 352.7017 356.617 362.2359 367.008 373.135 379.16239 385.31929 390.09138 392.6617 397.72273 403.3416 408.60188 414.1909 420.34779 429.06507 432.4922 438.64909 441.21943 443.78977 446.9977 451.7698 455.3663 460.95533 465.73738 473.64768 479.2367 485.3637 491.49073 494.06108 496.6314 501.41346 507.00248 510.59898 513.1693 519.19668 525.3535 530.1256 535.8143 543.59506 549.7519 552.32229 557.1043">componentsforefficientdevelopmentandbuildingSEO-friendly,responsive,andfull-stackapplications.Quick</tspan><tspan y="-599.194" x="46.8 49.37035 54.989259 60.578279 64.69283 70.84972 76.46862 83.173458 91.00406 93.57441 97.170909 105.91807 109.514568 115.67145 123.88063 129.46965 135.59665 138.167 140.73737 143.30773 146.90422 154.57543 158.17192 166.78957 172.37859 178.50559 184.0946 190.2216 196.40837 200.00487 208.62252 214.7794 220.19907 230.61994 234.21643 239.83535 244.61739 250.77428 256.93116 262.95854 265.52888 271.55625 277.68324 280.25358 285.87248 290.64457 296.33323 303.60594 309.22483 315.3518 317.92216 322.7042 328.2932 331.8897 337.5086 346.2259 349.8224 358.44004 364.56703 370.1859 372.75627 375.3266 380.3876 386.0065 390.12107 392.6914 398.8483 407.56556 413.72245 416.2928 422.4198 428.5767 431.78465 437.91163 444.0685 449.65754 452.22789 454.79823 458.3947 466.06593 473.8965 479.9239 484.03846 491.94877 497.53779 503.69468 512.4119 517.184 520.7805 526.3695 531.45046 534.0208 540.1777">learnerwiththeabilitytoadapttonewtechnologies.Dedicatedtodeliveringhigh-qualityworkandstaying</tspan><tspan y="-587.238" x="46.8 52.956888 59.083887 65.210887 70.799907 74.3964 80.015308 88.73258 96.56319 99.13354 102.730037 111.477199 114.04755 120.20444 126.331439 132.48833 137.2604 140.8569 144.97145 152.64266 156.23915 160.15445 165.77336 171.93025 178.05725 182.82933">updatedwithindustrytrends.</tspan></text>
<text xml:space="preserve" transform="matrix(1 0 -0 1 0 792)" font-size="11.9552" font-family="NotoSans"><tspan y="-573.222" x="36 42.64709 48.588827 54.458829 59.802804 65.899959 69.37892 74.72289 82.17098 88.315959">Experience</tspan></text>
<path transform="matrix(1,0,0,-1,36,223.16199)" stroke-width=".398" stroke-linecap="butt" stroke-miterlimit="10" stroke-linejoin="miter" fill="none" stroke="#000000" d="M0 0H540"/>
<text xml:space="preserve" transform="matrix(1 0 -0 1 0 792)" font-size="9.9626" font-family="NotoSans" font-weight="bold"><tspan y="-557.378" x="46.8 52.269468 56.593236 62.760087 69.30551 73.62928 76.837238 82.72513 89.27055 98.16716 105.53948 111.22813 116.89684 122.78474 125.823329 131.99018 138.2965 144.18439 151.29769 155.17314 161.71857 166.04233 171.93022 176.45325">Front-endDeveloperIntern</tspan></text>
<text xml:space="preserve" transform="matrix(1 0 -0 1 0 792)" font-size="9.9626" font-family="CMSY10" font-style="italic"><tspan y="-557.378" x="188.179">|</tspan></text>
<text xml:space="preserve" transform="matrix(1 0 -0 1 0 792)" font-size="9.9626" font-family="NotoSans" font-style="italic"><tspan y="-557.378" x="193.537 199.13599 204.90433 208.21192 210.78227 217.33766 220.56555 459.4687 462.18849 467.84724 473.61558 479.3839 485.04267 489.00779 496.25059 501.73997 507.22935 512.71878 520.7984 525.58047 531.17947 536.9478 540.9129 543.4833 548.6439 554.1333 559.6227 565.11209">KutirITJanuary2024&#x2013;April2024</tspan></text>
<text xml:space="preserve" transform="matrix(1 0 -0 1 0 792)" font-size="9.9626" font-family="NotoSans" font-weight="bold"><tspan y="-546.32" x="58.755006">&#x2013;</tspan></text>
<text xml:space="preserve" transform="matrix(1 0 -0 1 0 792)" font-size="9.9626" font-family="NotoSans"><tspan y="-546.32" x="68.717 75.96977 81.55879 84.12914 90.286029 95.90493 104.62221 110.7791 116.36812 122.52501 128.65201 133.42409 136.63205 142.65943 151.40659 156.82625 162.09647 168.22347 173.84238 177.95693 180.52729 186.1462 192.30309 197.08513 205.29431 213.12491 215.69527 219.29177 228.03893 235.6105 241.03017 246.30039 249.89688 252.56687 255.13722 262.49958 268.0886 275.45097 283.63026 287.05738 293.21427 295.7846 298.35496 301.5629 306.335 309.9315 315.5205 320.30256 328.21287 331.63999 335.5553 341.14433 350.45936 355.879 363.7096 369.73698 373.85154 381.76185 387.35087 393.50776 402.22505 406.96726 412.55628 415.12663 417.69697 425.52757 428.0979 434.2548 442.97206 449.2684 454.73789 460.20738 465.46763 471.08653 477.2434 483.4003 488.98933 495.1462 499.92826 502.4986 508.6555 517.37277 525.20339 530.82229">Gainedhands-onexperiencewithNext.jsasafull-stackframeworkandTailwindCSS,enhancingweb</tspan><tspan y="-534.365" x="68.717 74.844 80.26366 85.32466 90.943569 93.513919 99.54129 105.66829 114.98332 120.60223 126.75911 132.94588 137.71796 143.03798 145.60834 148.1787 150.74906 155.52114">developmentskills.</tspan></text>
<text xml:space="preserve" transform="matrix(1 0 -0 1 0 792)" font-size="9.9626" font-family="NotoSans" font-weight="bold"><tspan y="-522.409" x="58.755006">&#x2013;</tspan></text>
<text xml:space="preserve" transform="matrix(1 0 -0 1 0 792)" font-size="9.9626" font-family="NotoSans"><tspan y="-522.409" x="68.717 75.01337 81.04074 87.19763 90.79413 94.90868 97.479038 103.60603 109.762928 113.35942 118.978328 127.6956 131.2921 139.90975 148.08904 157.40407 163.56096 166.13132 169.72782 172.29817 175.50614 180.56714 186.18605 192.34294 198.46994 204.49732 211.20214 217.2295 225.0103 233.07004 237.84212 242.92305 247.69513 251.29163 256.91053 268.81584 274.74357 282.41477 288.54176 294.16065 298.93275 301.50309 307.63008 313.78697 316.3573 322.5142 331.23146 335.14677 340.76567 346.92256 351.69465 357.28367 363.41065 365.981 374.19017 378.9722 384.99958 394.3146 400.4416 406.46897 412.62586 418.24476 424.40165 427.99815 432.77024 438.0305 440.60084 446.75773 450.35423 455.9731 462.1001 466.0154 471.60444 475.20094 477.77128 483.92817 492.64546 499.01155 505.0389 511.0065 516.6254 522.7823 528.9093 535.0363 541.06369 543.63406 549.7909 553.3874 558.1595">Contributedtoamulti-vendorPOSsystembydesigningreusablecomponents,integratingAPIendpoints,</tspan><tspan y="-510.454" x="68.717 74.30602 80.462909 89.18018 91.750537 101.06557 107.192569 109.76292 115.38182 124.69685 130.31577 136.47266 140.06916 142.63951 148.7964 157.51367 160.94081 166.55973 172.14875 175.74524 181.90213 185.81743 191.43634 198.79869 204.38771 210.5446 219.26187 222.68901 228.8459 235.00279 239.78484 243.38134 245.95169 251.97907 258.13597 263.72499 266.29533 268.86567 272.46217 275.0325 280.6514 285.4235 291.11216 298.89295 305.01997 308.61647 311.1868 320.50184 323.07218 327.7546 333.3735 342.09077 349.92137 355.54026 361.66725 366.43934 369.00968 372.60618 380.81535 383.38569 389.41307 395.00209 403.71937 407.31587 409.8862 419.20124 427.4104 433.33818 441.00938 446.70799 452.4066 460.68553 465.94578 468.5161 477.83116 483.95814 487.87345 493.70158 498.76258 501.33293 507.4898 516.2071 522.36398 527.13607 532.75497">andimplementingfeaturesandfunctionalities.Optimizedwebsiteloadtimeby25%,improvinguser</tspan><tspan y="-498.49903" x="68.717 74.13666 79.406879 85.533878 91.15278 95.267337 97.837688 103.45659 109.61348 114.39553 120.014438">experience.</tspan></text>
<text xml:space="preserve" transform="matrix(1 0 -0 1 0 792)" font-size="9.9626" font-family="NotoSans" font-weight="bold"><tspan y="-486.644" x="46.800004 52.26947 58.8149 61.853494 64.89208 68.10004 73.05145 77.37522 83.39263 88.513408 97.280498 104.65282 110.34146 116.01018 121.89807 124.93666 131.10352 137.40984 143.29773 150.41103 154.28649 160.83191 165.15567 171.04357 175.56659">Full-stackDeveloperIntern</tspan></text>
<text xml:space="preserve" transform="matrix(1 0 -0 1 0 792)" font-size="9.9626" font-family="CMSY10" font-style="italic"><tspan y="-486.644" x="187.293">|</tspan></text>
<text xml:space="preserve" transform="matrix(1 0 -0 1 0 792)" font-size="9.9626" font-family="NotoSans" font-style="italic"><tspan y="-486.644" x="192.65 198.24898 200.79941 204.02729 205.88033 213.46186 220.21649 223.98236 228.9537 233.92505 240.96862 246.08939 431.85206 438.8956 444.3053 448.95783 453.92918 462.64646 468.4148 473.38615 479.94154 485.4309 490.9203 496.40968 504.48933 511.86164 514.5814 520.2402 526.00857 531.7769 537.43569 541.40078 548.64358 554.13296 559.6223 565.1117">A.I.TGreeNEXNovember2022&#x2013;January2023</tspan></text>
<text xml:space="preserve" transform="matrix(1 0 -0 1 0 792)" font-size="9.9626" font-family="NotoSans" font-weight="bold"><tspan y="-475.58503" x="58.75499">&#x2013;</tspan></text>
<text xml:space="preserve" transform="matrix(1 0 -0 1 0 792)" font-size="9.9626" font-family="NotoSans"><tspan y="-475.58503" x="68.71699 75.989688 81.60859 86.38068 88.95103 95.078029 101.23491 106.85381 115.57109 121.16011 127.317 136.03427 142.16127 147.58094 152.64194 158.26085 160.8312 166.85858 172.98558 178.60449 187.32176 195.50106 201.62805 204.19841 210.22579 218.94306 224.53208 230.65908 236.78607 239.35643 241.92679 246.70883 252.29785 255.89435 258.4647 264.49208 273.23924 276.66636 280.58168 286.60905 292.76594 296.36244 301.98133 308.1382 316.85548 323.01237 327.78446 330.3548 336.5117 345.22895 351.4257 357.0446 362.6336 367.41566 371.01216 373.68214 376.25248 383.61485 389.20387 395.36076 404.078 408.86006 411.4304 417.45777 423.61466 429.23356 437.9508 446.1301 450.0454 455.6643 460.4364 466.46379 470.57835 476.7651 484.5957 490.2146 496.3416 501.1137 503.68406 507.28056 515.48977 518.9169 522.83218 528.8595 535.01638 538.61288 544.23178 550.3886">DesignedanddevelopedablogapplicationfrontendusingReact.jsandclonedaresortwebsitefrontend</tspan><tspan y="-463.63005" x="68.71699 74.87387 79.64596 82.21631 88.3732 97.09048 104.47276 110.01197 119.04805 124.268459 129.5287 135.82506 141.29453 146.76399 152.02425 157.61327 163.77016 172.48743 175.20722 180.79624 185.85724 191.44626 196.91573 201.69777 205.81232 208.38268 214.50968 218.10617">usingHTML,CSS,andJavaScript.</tspan></text>
<text xml:space="preserve" transform="matrix(1 0 -0 1 0 792)" font-size="9.9626" font-family="NotoSans" font-weight="bold"><tspan y="-451.67506" x="58.75499">&#x2013;</tspan></text>
<text xml:space="preserve" transform="matrix(1 0 -0 1 0 792)" font-size="9.9626" font-family="NotoSans"><tspan y="-451.67506" x="68.71699 75.989688 81.40934 86.47034 92.08924 94.65959 100.686969 106.813968 112.43287 121.15015 127.51625 133.54363 139.51122 145.13013 151.28702 157.41402 163.54102 169.56839 172.13875 178.29564 181.89214 189.25449 192.68163 198.709 205.41382 209.01032 215.1672 223.37639 229.50339 232.07375 238.10112 246.81839 252.40741 258.53443 264.66145 267.23179 269.80213 274.58418 280.1732 283.76969 286.34004 292.3674 301.11457 307.27146 312.04356 314.6139 320.77079 329.48805 334.65864 340.24766 345.01976 348.61625 354.98234 361.0097 366.9773 370.40443 374.31974 379.90876 389.2238 394.64344 402.47404 408.5014 412.61598 417.936 423.19627 428.81517 434.97206 439.74415 445.90104 450.0156 452.58595 458.74284 467.46009 473.5871 477.5024 483.5298 489.6568 495.2757 501.98054 508.10755 514.1349 518.91696 525.0738 534.3888 540.0077 546.16458 549.76107 555.35006 558.94656 561.5169 567.54428">DevelopedAPIendpointsfortheblogapplicationusingFastAPIframework,ensuringproperdocumentation</tspan><tspan y="-439.71907" x="68.71699 76.54759 79.11794 82.71444 91.4616 96.93107 104.76167 110.35069 116.47769 122.60469 128.2236 134.92842 142.21108 145.5884 150.84865 157.145 163.17238 169.32927 172.92577 177.04032 179.61067 185.73767 191.89456 195.49106 201.10997 209.82724 213.42374 222.04138 230.22068 235.00272 241.03009 247.15709 252.776 258.903 264.49205 269.26414 277.4733 285.3039 287.87425 291.47074 300.2179 306.04603 311.10704 316.72593 323.43077 329.12937 334.82798 337.49797 343.19657 348.89518 357.18406 359.7544 362.32475 368.48164 374.10054 381.4629 387.49028 393.50767 398.2897 404.31709 410.4441 416.063 421.32325 427.45027 433.06916 442.3842 448.41157 454.56846 459.34056 462.93705 466.85237 472.44139 476.03788 478.60823 484.7651 493.48237 499.60939 503.5247 509.55207 512.5508 515.54959 520.3316 522.902 528.5209 534.67776 539.4598 547.131 549.70138">withSwaggerUI.Contributedtoacodebasewithover10,000linesofcode,demonstratingproficiencyin</tspan><tspan y="-427.76408" x="68.71699 76.54759 82.57497 86.68952 92.00955 94.5799 100.736789 109.45406 117.28467 119.85502 123.451519 132.19867 134.76903 140.35805 144.37297 150.49997 156.11888 159.32685 164.09893 168.88097 174.46999 177.04035 185.24953 191.37653 195.29183 201.3192 203.88956 209.50847 214.29051 217.88701 222.65909">workingwithlarge-scaleprojects.</tspan></text>
<text xml:space="preserve" transform="matrix(1 0 -0 1 0 792)" font-size="11.9552" font-family="NotoSans"><tspan y="-407.77009" x="46.799989 53.44708 60.405008 67.530307 73.67528 79.68874 85.04467 88.523639 96.07932">Education</tspan></text>
<path transform="matrix(1,0,0,-1,36,388.614)" stroke-width=".398" stroke-linecap="butt" stroke-miterlimit="10" stroke-linejoin="miter" fill="none" stroke="#000000" d="M0 0H540"/>
<text xml:space="preserve" transform="matrix(1 0 -0 1 0 792)" font-size="9.9626" font-family="NotoSans" font-weight="bold"><tspan y="-385.67" x="46.8 53.494867 59.512277 66.0577 72.36403 75.40262 81.42003 87.72636 93.61425 98.56566 107.70136 115.233089 121.77851 124.8171 130.48583 136.37372 140.89675 145.84816 148.88675 153.21051 161.4695 167.63636 174.08216 180.33867 184.66245 190.8293 194.68483 200.57273 205.52414 210.47556 213.51415 219.681 226.22643 232.24384 235.28243 240.23384">BangladeshUniversityofProfessionals,</tspan></text>
<text xml:space="preserve" transform="matrix(1 0 -0 1 0 792)" font-size="9.9626" font-family="NotoSans"><tspan y="-385.67" x="245.664 254.70008 257.27043 261.38499 267.51197 273.66886 280.3737 286.67005 292.25907 298.41596 302.01246 308.03984 314.19673 323.51176 329.13066 335.28755 338.88404 344.1443 351.417 357.57389 363.1629 368.48295 431.1975 433.9173 439.50633 445.6632 451.8201 457.40913 461.52369 469.1949 474.8935 480.5921 486.2907 494.5796 502.15116 509.42387 515.0428 519.8248 525.4437 534.7587 540.88577 546.50466 553.2095 558.9081 564.6067 570.3053">MirpurCantonment,DhakaJanuary2020&#x2013;December2023</tspan><tspan y="-373.71504" x="46.800004 53.176069 55.846044 61.31551 66.09756 71.7862 74.35655 83.10372 86.48104 92.637928 96.065059 102.09243 106.206989 115.52202 121.11104 124.707538 127.277889 133.30525 142.05242 147.64144 153.79833 162.5156 168.81195 174.83933 184.15436 193.46939 199.62628 205.78318 208.35353 213.13558 218.7246 222.32109 224.89145 230.91883 239.66599 245.20519 251.36208 257.48908 260.05943 266.2163 271.8352 277.4541 281.56867 284.139 290.2959">B.Sc.inInformationandCommunicationEngineering</tspan></text>
<text xml:space="preserve" transform="matrix(1 0 -0 1 0 792)" font-size="9.9626" font-family="CMSY10" font-style="italic"><tspan y="-373.71504" x="299.016">|</tspan></text>
<text xml:space="preserve" transform="matrix(1 0 -0 1 0 792)" font-size="9.9626" font-family="NotoSans"><tspan y="-373.71504" x="304.374 310.4711 317.72389 323.2531 329.6192 334.87947 340.57807 343.24806 348.94667">CGPA:3.58</tspan></text>
<text xml:space="preserve" transform="matrix(1 0 -0 1 0 792)" font-size="11.9552" font-family="NotoSans"><tspan y="-347.74305" x="46.799989 54.032884 60.130037 67.68572 70.49519 75.839168 81.98414 87.340068">Projects</tspan></text>
<path transform="matrix(1,0,0,-1,36,448.641)" stroke-width=".398" stroke-linecap="butt" stroke-miterlimit="10" stroke-linejoin="miter" fill="none" stroke="#000000" d="M0 0H540"/>
<text xml:space="preserve" transform="matrix(1 0 -0 1 0 792)" font-size="9.9626" font-family="NotoSans" font-weight="bold"><tspan y="-324.428" x="57.599 63.178056 68.29883 74.465679 84.24895 94.03222 99.92011 104.24388 109.364658">Ecommerce</tspan></text>
<text xml:space="preserve" transform="matrix(1 0 -0 1 0 792)" font-size="9.9626" font-family="CMSY10" font-style="italic"><tspan y="-324.428" x="120.433">|</tspan></text>
<text xml:space="preserve" transform="matrix(1 0 -0 1 0 792)" font-size="9.9626" font-family="NotoSans" font-style="italic"><tspan y="-324.428" x="125.791 132.83457 137.80591 142.61785 145.92543 148.47586 151.04622 155.35007 160.49077 166.19934 171.17069 176.93903 182.70737 190.10958 194.40345 200.01239 205.62134 208.1917 213.12319 215.69355 219.00113 224.14183 232.52037 238.12932 243.89766 249.666 255.27495 260.88389 265.1877 270.15907 275.29975 283.67829 289.28724 295.05558 300.8239 309.02314 314.6221 317.9297 320.50004 326.15879 330.46263 335.6033 338.3231 346.85108 351.2446 356.38529 360.57957 366.2383 368.80867 371.379 378.58198 381.1523 386.92066">Next.js,ReduxToolkit,Mongoose,MongoAtlas,JWT,Tailwind</tspan></text>
<text xml:space="preserve" transform="matrix(1 0 -0 1 0 792)" font-size="9.9626" font-family="CMSY10" font-style="italic"><tspan y="-324.428" x="395.45899">|</tspan></text>
<text fill="#0000ff" xml:space="preserve" transform="matrix(1 0 -0 1 0 792)" font-size="9.9626" font-family="NotoSans"><tspan y="-324.428" x="400.817 406.03739 408.60774 413.66874 421.8779 427.0983 429.66865 435.82554">LiveLink</tspan></text>
<text xml:space="preserve" transform="matrix(1 0 -0 1 0 792)" font-size="9.9626" font-family="CMSY10" font-style="italic"><tspan y="-324.428" x="443.736">|</tspan></text>
<text fill="#0000ff" xml:space="preserve" transform="matrix(1 0 -0 1 0 792)" font-size="9.9626" font-family="NotoSans"><tspan y="-324.428" x="449.094 454.56349 460.59086 466.74775 470.66307 475.4451 483.65428 489.95063 495.978 502.10499">SourceCode</tspan></text>
<text xml:space="preserve" transform="matrix(1 0 -0 1 0 792)" font-size="9.9626" font-family="NotoSans" font-style="italic"><tspan y="-324.428" x="538.162 546.5405 552.1993 559.4421 564.93148 570.42086 575.9102">May2024</tspan></text>
<text xml:space="preserve" transform="matrix(1 0 -0 1 0 792)" font-size="9.9626" font-family="NotoSans"><tspan y="-304.383" x="65.757999">*</tspan></text>
<text xml:space="preserve" transform="matrix(1 0 -0 1 0 792)" font-size="9.9626" font-family="NotoSans"><tspan y="-305.399" x="76.229 83.50169 88.92135 93.982349 99.60125 102.1716 108.198978 114.32597 119.94488 128.66216 134.25118 142.99834 148.61725 153.39929 159.42667 168.7417 178.05673 183.67565 187.59095 192.37299 200.58217 206.70917 209.27953 214.86855 218.46504 221.89218 227.91956 232.0341 243.9394 251.77 257.92689 263.54579 267.4611 275.67027 280.73127 283.3016 288.0737 290.64405 294.24055 300.2679 304.38249 311.74485 316.5269 322.1159 330.86308 335.63517 341.25407 346.84309 350.7584 355.54045 364.2876 370.4146 374.32994 380.3573 386.4843 392.6412 397.42326 401.01976 408.3821 414.30986 421.98106 428.13795 433.72697 443.042 451.25117 457.27854 463.98338 468.7654 474.35444 477.95094 483.56983 489.69685 495.7242 499.83879 504.5212 509.78147 512.7802 515.77896 518.3493 521.9458 527.5647 534.26956 540.39657 544.3118 550.3392 556.4662 562.62307 567.4051 571.0016">Developedanecommerceplatformwherevisitorscansearchproductsbynameorcategory,filterproducts</tspan><tspan y="-293.444" x="76.229 82.156749 89.82795 94.61 100.19902 103.79552 109.41442 115.54142 121.568798 125.68335 133.35456 138.94358 145.10047 153.81774 159.94474 164.05928 166.62964 171.41168 179.62087 183.53617 189.12519 195.28208 201.40908 207.02799 212.28824 217.87726 224.00426 232.72153 238.84853 242.76383 248.7912 254.9182 261.07508 265.85713 269.4536 276.81599 280.41249 289.03013 296.86073 299.43107 304.20317 310.36006 312.9304 315.50074 320.27284 323.86933 329.12959 334.7186 340.84559 349.56288 355.68989 359.6052 365.63258 371.75959 377.91648 382.69853 386.295 393.65739 397.25389 405.87153 410.65357 416.24259 420.35716 423.95365 429.2139 434.80293 440.9598 449.67707 454.73808 457.3084 462.72807 473.14894 479.27595 483.19126 489.21864 495.34565 501.50254 506.28459 512.4714 518.5984 524.2173 527.8138 533.4028 535.97317 538.5435 543.3156">bycategoryandpricerange,addproductstowishlist,addproductstocart,andviewproductdetails.</tspan></text>
<text xml:space="preserve" transform="matrix(1 0 -0 1 0 792)" font-size="9.9626" font-family="NotoSans"><tspan y="-282.465" x="65.757999">*</tspan></text>
<text xml:space="preserve" transform="matrix(1 0 -0 1 0 792)" font-size="9.9626" font-family="NotoSans"><tspan y="-283.481" x="76.229 79.606319 88.92135 95.04835 97.6187 103.2376 112.552639 118.17154 124.32843 127.92493 133.54384 142.26111 148.418 153.19008 158.80899 165.51381 171.10283 177.25972 180.85622 187.0131 192.63202 198.78891 202.3854 204.95577 209.73781 215.32683 218.92333 221.49369 227.52106 236.26822 241.85724 248.01413 256.7314 262.32044 268.47734 272.07383 278.2307 284.2581 288.37266 290.943 295.62544 301.21446 304.81095 307.3813 313.40867 319.56556 324.8258 330.41484 332.98518 335.5555 341.38365 349.21424 351.78459 357.94148 366.65876 370.57408 376.19297 382.31996 384.8903 389.66239 393.25889 398.87779 402.7931 408.412 417.12928 422.7183 428.87519 437.59248 440.1628 446.1902 452.3172 458.4442 464.0631 470.19013 473.39808 475.9684 484.71559 490.87248 495.64457 501.26347 505.37803 512.7404 516.3369 524.9545 531.08157 533.6519 539.2409 544.02297">Implementeduserauthenticationandauthorization,allowingregisteredandlogged-inuserstoplace</tspan><tspan y="-271.526" x="76.229 82.25637 86.17168 92.298679 97.91758 102.032138 106.80422 112.064479 117.12547 119.69582 125.11548 135.53635 139.13285 145.28974 150.90865 153.479 160.18383 166.31082 170.22612 176.2535 179.25225 182.25098 184.82134 190.44025 195.7005 201.72788 205.64318 211.77017 217.38909 224.0939 230.2508 232.82115 237.59323 241.18973 247.2171 251.33165 256.01408 261.27433 266.86335 273.02024 281.7375 287.89439 294.02137 300.14839 305.7374 309.3339 317.54307 323.67005 327.58537 333.61274 336.61149 339.61024 342.18058 350.38975 352.96009 359.11698 362.5441 368.57148 372.68605 382.00108 387.5901 391.18659 393.75694 399.7843 405.9412">orders,viewtheirprofile,orderhistory,andupdateprofileinformation.</tspan></text>
<text xml:space="preserve" transform="matrix(1 0 -0 1 0 792)" font-size="9.9626" font-family="NotoSans" font-weight="bold"><tspan y="-253.693" x="57.599 64.17432 70.06221 76.07962 79.11821 83.44198 86.48057 96.26384 104.74201 111.08819 117.63361 123.651027">RealtimeChat</tspan></text>
<text xml:space="preserve" transform="matrix(1 0 -0 1 0 792)" font-size="9.9626" font-family="CMSY10" font-style="italic"><tspan y="-253.693" x="133.156">|</tspan></text>
<text xml:space="preserve" transform="matrix(1 0 -0 1 0 792)" font-size="9.9626" font-family="NotoSans" font-style="italic"><tspan y="-253.693" x="138.513 145.55657 150.52791 155.33985 158.64743 161.19786 163.76822 168.07207 173.21277 180.25634 185.22768 190.03961 193.3472 196.4655 202.12425 207.8926 211.20018 216.96852 222.10923 227.75801 233.52635 237.8302 243.59854 248.56989 251.3395 253.88993 256.46028 260.7641 265.9048 271.75285 274.32319 279.93214 285.70048 291.4688 294.03916 299.8075 305.46626 309.43138 313.6854 318.82609 327.20463 332.81358 338.5819 344.35026 349.9592 355.56816 359.87199">Next.js,Next-auth,Pusher.js,Cloudinary,Mongoose</tspan></text>
<text xml:space="preserve" transform="matrix(1 0 -0 1 0 792)" font-size="9.9626" font-family="CMSY10" font-style="italic"><tspan y="-253.693" x="367.43403">|</tspan></text>
<text fill="#0000ff" xml:space="preserve" transform="matrix(1 0 -0 1 0 792)" font-size="9.9626" font-family="NotoSans"><tspan y="-253.693" x="372.79203 378.01243 380.58277 385.64378 393.85295 399.07334 401.64369 407.80058">LiveLink</tspan></text>
<text xml:space="preserve" transform="matrix(1 0 -0 1 0 792)" font-size="9.9626" font-family="CMSY10" font-style="italic"><tspan y="-253.693" x="413.12104">|</tspan></text>
<text fill="#0000ff" xml:space="preserve" transform="matrix(1 0 -0 1 0 792)" font-size="9.9626" font-family="NotoSans"><tspan y="-253.693" x="418.47904 423.94853 429.9759 436.13279 440.0481 444.83015 453.0393 459.33567 465.36305 471.49006">SourceCode</tspan></text>
<text xml:space="preserve" transform="matrix(1 0 -0 1 0 792)" font-size="9.9626" font-family="NotoSans" font-style="italic"><tspan y="-253.693" x="538.16207 546.5406 552.19937 559.44216 564.9315 570.4209 575.9103">May2024</tspan></text>
<text xml:space="preserve" transform="matrix(1 0 -0 1 0 792)" font-size="9.9626" font-family="NotoSans"><tspan y="-233.648" x="65.75806">*</tspan></text>
<text xml:space="preserve" transform="matrix(1 0 -0 1 0 792)" font-size="9.9626" font-family="NotoSans"><tspan y="-234.664" x="76.22906 83.501758 88.92141 93.98241 99.60131 102.17166 108.199039 114.326038 119.94494 128.66222 136.8415 140.7568 146.37572 151.96474 154.5351 158.13159 160.70195 170.01699 178.22617 183.00821 189.1651 194.75412 200.94089 206.5299 212.6569 218.7839 221.35427 223.92462 228.70667 234.29569 237.89218 240.46254 246.48992 255.23708 263.0677 269.22459 274.84349 278.7588 286.96797 292.55699 298.71388 302.31037 308.46726 314.08616 320.24305 323.83955 326.40989 331.19194 336.78096 340.37745 345.99635 354.71363 360.8705 365.6426 371.2615 375.37608 382.73844 387.52049 393.1095 401.85667 404.427 410.5839 413.15425 416.75074 419.32109 424.9101 428.5066 436.71577 442.84278 448.46168 452.57624 457.34834 463.3757 469.5326 475.1216 480.28224 486.3096 493.01445 499.14143 503.05674 509.0841 515.24099 523.95828 528.7403 534.89718 540.48617 544.08267 551.445 557.37277">Developedarealtimechatapplicationwhereauthenticateduserscaninitiatepersonalorgroupchatsby</tspan><tspan y="-222.709" x="76.22906 81.001148 86.62005 89.1904 94.8093 99.591358 103.18785 105.7582 111.915088 120.63236 125.41441 131.44179 137.59868 141.19518 146.7842 151.56624 155.16274 159.93482">selectingcontacts.</tspan></text>
<text xml:space="preserve" transform="matrix(1 0 -0 1 0 792)" font-size="9.9626" font-family="NotoSans"><tspan y="-211.73" x="65.75806">*</tspan></text>
<text xml:space="preserve" transform="matrix(1 0 -0 1 0 792)" font-size="9.9626" font-family="NotoSans"><tspan y="-212.746" x="76.22906 79.60638 88.92141 95.04841 97.61876 103.23766 112.5527 118.1716 124.32849 127.92499 133.5439 142.26117 148.41806 153.19014 158.80905 165.51387 171.64087 175.55617 181.58354 184.58229 187.58103 190.15139 198.36057 204.51746 210.64446 216.77146 222.36048 225.95697 231.57588 236.34796 241.60822 244.17858 250.33547 255.11751 257.68788 263.84477 269.97175 272.54209 278.69898 287.41627 293.57316 299.16218 308.4772 316.68638 322.2754 328.43229 337.14955 339.71989 349.0349 354.62394 360.75093 368.96009 373.74214 379.89903 385.48805 391.64494 397.7719 403.3908 408.1629 413.85157 421.10435 425.01966 431.04704 437.20393 445.9212 452.04823 457.63725 461.7518 465.3483 467.91865 472.70069 475.27104 481.398 486.98704 493.14393 496.74043 504.10279 508.88484 514.4738 523.22097 529.3778 535.5048 541.63186 547.2208 550.8173">Implementeduserprofileupdates,includingnameandimagechanges.Groupparticipantscanupdate</tspan><tspan y="-200.791" x="76.22906 82.35606 86.27136 92.29874 98.45563 107.172908 113.299907 117.21521 123.242588 126.241329 129.24007 131.81043 140.0196 142.58997 151.905 157.49402 163.62102 171.8302 177.41922 183.57611 192.29338 198.45027 204.03929 213.35433 218.97324">groupprofileimageandname.</tspan></text>
<text xml:space="preserve" transform="matrix(1 0 -0 1 0 792)" font-size="9.9626" font-family="NotoSans"><tspan y="-189.812" x="65.75806">*</tspan></text>
<text xml:space="preserve" transform="matrix(1 0 -0 1 0 792)" font-size="9.9626" font-family="NotoSans"><tspan y="-190.828" x="76.22906 79.60638 85.76326 90.54531 96.572689 100.68724 106.81424 112.84161 116.75692 122.34594 125.94244 131.56134 140.27861 145.05069 150.6696 156.25862 160.17392 164.95597 173.70313 177.13027 183.28716 189.44405 194.22609 197.82259 200.39295 206.42032 212.57721 218.16623 220.73659 223.30695 226.90345 234.57465 238.00179 244.02916 250.73398 255.51602 261.5434 267.7003 271.29679 276.8858 281.66786 285.26435 292.6267 298.21574 304.37263 313.0899 317.87196 324.02885 329.61787 333.21437 337.98646 343.2467 349.37373 351.94407 356.71617 362.84315 365.41349 371.0025 376.08345 378.65379 384.81068 393.52796 399.65498 403.57029 408.98994 414.05094 416.62129 422.64866 428.80555 436.1679 445.48295 451.10185 455.87394 460.64604 466.23506 472.36207 477.98097 485.34333 491.5002 497.6272 503.65458 512.40176 517.1838 523.34066 528.9296">Incorporatedsearchfunctionalityforcontactsandchats,displayingpreviousmessagesuponchat</tspan><tspan y="-178.873" x="76.22906 81.001148 86.62005 89.1904 94.8093 99.591358 103.18785 105.7582 111.785579 117.94246 123.6311 129.1703 135.3272 140.91622 147.04322 149.61357 155.23249 163.94976 168.72183 174.34075 180.49764 186.62464 189.19499 195.35189 204.06916 207.66565 213.08531 218.35553 224.5423 230.13132 236.28821 245.00548 247.57584 256.89088 262.4799 268.60688 276.81605 286.13108 291.74998 296.52207 301.29417 306.88319 313.0102 318.6291 325.99147 328.5618 337.30897 341.22428 346.84318 352.4322 355.00254 358.21049 361.80699 364.37733 373.69236 381.90153 389.73213 392.30247 395.89897 404.64613 408.2426 414.3995 422.60868 425.17903 430.76805 435.54014 441.7269 451.04194 456.66084 461.43293 466.20503 471.79405 477.92103 486.1302 492.2572 494.82756 499.59965 505.72663 508.29698 513.886 518.9669 524.5858 533.3031 538.8921 545.07888 548.67538 554.8322">selection.Enabledsendingtextandimagemessagesinreal-timewiththelastmessagedisplayedatthe</tspan><tspan y="-166.918" x="76.22906 82.35606 88.38343 91.97993 95.57642 101.6038 113.50911 119.53648 125.553897 129.15039 135.30728 143.51647 148.29851 154.4554 160.04442 163.64092 169.76792 175.59604 180.86626">bottomofthechatbox.</tspan></text>
<text xml:space="preserve" transform="matrix(1 0 -0 1 0 792)" font-size="9.9626" font-family="NotoSans" font-weight="bold"><tspan y="-149.08499" x="57.59906 64.29393 67.33252 73.49937 82.39597 89.270168 95.57649">BlogApp</tspan></text>
<text xml:space="preserve" transform="matrix(1 0 -0 1 0 792)" font-size="9.9626" font-family="CMSY10" font-style="italic"><tspan y="-149.08499" x="107.06406">|</tspan></text>
<text xml:space="preserve" transform="matrix(1 0 -0 1 0 792)" font-size="9.9626" font-family="NotoSans" font-style="italic"><tspan y="-149.08499" x="112.42106 119.464618 124.43595 129.2479 132.55548 135.10591 137.67627 141.98012 147.12082 154.16439 159.13573 163.94766 167.25525 170.37355 176.0323 181.80065 185.10823 190.87657 196.01728 201.66606 205.63118 208.20154 212.50539 221.22266 226.88141 232.02211 240.40065 246.0594 250.02452 254.75676 260.52513 265.9348 273.1378 278.90614 284.0468 289.07795 297.60594 303.31449 308.45518 316.8337 322.44267 328.211 333.97935 339.5883 345.19725 349.50108">Next.js,Next-auth,Prisma,Markdown,SWR,Mongoose</tspan></text>
<text xml:space="preserve" transform="matrix(1 0 -0 1 0 792)" font-size="9.9626" font-family="CMSY10" font-style="italic"><tspan y="-149.08499" x="357.06306">|</tspan></text>
<text fill="#0000ff" xml:space="preserve" transform="matrix(1 0 -0 1 0 792)" font-size="9.9626" font-family="NotoSans"><tspan y="-149.08499" x="362.42106 367.89054 373.9179 380.0748 383.9901 388.77217 396.98133 403.27769 409.30506 415.43208">SourceCode</tspan></text>
<text xml:space="preserve" transform="matrix(1 0 -0 1 0 792)" font-size="9.9626" font-family="NotoSans" font-style="italic"><tspan y="-149.08499" x="536.379 541.978 547.7464 551.7115 554.28189 559.4425 564.9319 570.42129 575.91067">April2024</tspan></text>
<text xml:space="preserve" transform="matrix(1 0 -0 1 0 792)" font-size="9.9626" font-family="NotoSans"><tspan y="-129.04" x="65.758029">*</tspan></text>
<text xml:space="preserve" transform="matrix(1 0 -0 1 0 792)" font-size="9.9626" font-family="NotoSans"><tspan y="-130.056" x="76.22903 79.606349 88.92138 95.04838 97.61873 103.23763 112.552669 118.17157 124.32846 127.92496 133.54387 142.26114 149.51392 155.54129 161.56867 167.69567 170.26602 178.4752 184.06423 190.22112 193.81761 199.9745 205.59342 211.7503 215.3468 217.91716 222.6992 228.28823 231.88472 234.45508 240.48246 249.22962 252.65676 258.6841 265.38896 271.54585 276.31794 281.93684 288.64167 291.212 297.23939 303.3664 305.93675 312.09364">ImplementedGoogleauthenticationforuserlogin.</tspan></text>
<text xml:space="preserve" transform="matrix(1 0 -0 1 0 792)" font-size="9.9626" font-family="NotoSans"><tspan y="-119.076999" x="65.758029">*</tspan></text>
<text xml:space="preserve" transform="matrix(1 0 -0 1 0 792)" font-size="9.9626" font-family="NotoSans"><tspan y="-120.093997" x="76.22903 83.501728 88.92138 93.982379 99.60128 102.17163 108.199008 114.326007 119.94491 128.66219 136.84148 142.96848 145.53884 151.56621 160.28348 165.8725 171.9995 178.1265 180.69686 183.26721 188.04926 193.63828 197.23477 199.80513 205.8325 214.57967 222.41027 228.56716 234.18607 238.10137 246.31055 251.89957 258.05647 261.65296 267.80986 273.42875 279.58564 283.18214 285.75248 290.53453 296.12355 299.72004 305.33894 314.0562 320.2131 324.9852 330.6041 334.71867 342.08103 346.86308 352.4521 361.19926 366.26026 368.8306 374.25025 384.6711 390.26014 392.83049 397.9911 404.1181 410.14549 414.91758 418.51408 423.28617 428.54643 433.32847 438.91749 442.51399 448.13288 454.2599 460.28727 464.40184 466.97218 472.59107 477.36317 482.6234 488.75044 494.7778 499.5499 505.73667 511.86366 517.48257 521.07907 526.668 529.2384 531.8088 536.5809 541.8411 547.4301 553.5571">Developedablogapplicationwhereauthenticateduserscanviewallposts,categories,postdetails,add</tspan><tspan y="-108.13799" x="76.22903 81.01108 87.03845 96.353488 105.66852 111.28742 117.444309 121.0408 125.81289 131.07314 138.90373 143.01828 145.58864 149.18514 157.39432 163.52132 169.54869 174.32077 177.91727 182.68935 187.9496 193.53862 199.69551 208.41278 214.56967 220.69667 223.26703 229.2944 234.88343 243.6007 246.59944 249.59818 252.16854 257.78746 265.1498 268.7463 277.36396 282.53456 285.1049 289.0202 294.6391 300.7661 306.35514 311.12724 316.74613">comments,writeposts,anduploadfilestoFirebase.</tspan></text>
<text xml:space="preserve" transform="matrix(1 0 -0 1 0 792)" font-size="9.9626" font-family="NotoSans" font-weight="bold"><tspan y="-90.30499" x="57.59903 66.99376 73.539188 76.577777 80.90154 83.94013 89.60885 95.49674 102.04217 108.348499 114.51534 121.62864 127.885158 135.81539 143.89505 149.38445 155.05316 160.00458 164.32834 170.21623">MultivendorPOSSystem</tspan></text>
<text xml:space="preserve" transform="matrix(1 0 -0 1 0 792)" font-size="9.9626" font-family="CMSY10" font-style="italic"><tspan y="-90.30499" x="185.18003">|</tspan></text>
<text xml:space="preserve" transform="matrix(1 0 -0 1 0 792)" font-size="9.9626" font-family="NotoSans" font-style="italic"><tspan y="-90.30499" x="190.53803 197.58159 202.55294 207.36487 210.67246 213.22289 215.79325 220.09709 225.2378 230.2689 236.03725 241.696 247.46434 251.9774 257.74577 262.88645 268.595 273.7158 278.7469 286.32844 291.9274 297.5762 460.06623 462.786 468.44477 474.2131 479.98146 485.6402 489.60533 496.8481 502.3375 507.82688 513.3163 521.39596 528.76828 537.1468 542.80557 546.57138 551.0844 559.44308 564.93246 570.4218 575.9112">Next.js,Shadcn,RESTAPIJanuary2024&#x2013;March2024</tspan></text>
<text xml:space="preserve" transform="matrix(1 0 -0 1 0 792)" font-size="9.9626" font-family="NotoSans"><tspan y="-70.260997" x="65.758029">*</tspan></text>
<text xml:space="preserve" transform="matrix(1 0 -0 1 0 792)" font-size="9.9626" font-family="NotoSans"><tspan y="-71.27699" x="76.22903 82.52539 88.552768 94.709659 98.30615 102.42071 104.99106 111.11806 117.27495 120.871448 126.49035 135.20761 138.80411 147.42176 155.60105 164.91608 171.07297 173.64333 177.23983 179.81018 183.01815 188.07915 193.69806 199.85495 205.98195 212.00933 218.71414 224.74152 232.52231 240.58205 245.35413 250.43506 255.20714 258.80366 264.42256 276.32786 284.15846 290.31535 295.93424 299.84956 308.05873 312.8308 318.9877 325.01509 333.73237 339.5605 347.39109 353.54798 359.16688 363.28144 370.6438 375.42585 381.01487 389.76203 394.54408 398.45939 404.07829 409.6673 413.2638 421.47297 426.24507 432.40196 438.42933 444.55635 449.32844 454.58869 460.1777 464.9498 469.7219 472.29225 478.41926 487.1664 496.48146 502.07048 508.22737 513.81637 519.94338 525.56228 529.6768 537.0392 542.6282 548.78506">Contributedtoamulti-vendorPOSsystemwhereshopownerscancreateshops,assignmanagersand</tspan><tspan y="-59.32199" x="76.22903 81.001117 86.62002 89.19037 91.76072 97.37962 101.49418 106.266269 111.52652 117.11554 123.27243 131.9897 141.30474 146.89376 153.05065 158.63967 164.76667 170.38558 174.50012 181.86248 186.64452 192.23354 200.9807 206.56972 212.69672 221.41399 227.44136 234.14618 238.06148 243.68039 252.99542 258.82356 263.88456 272.09373 278.2207 282.13603 288.1634 294.2904 300.4473 305.22935 308.82585 316.1882 321.77723 327.9341 336.65138 341.42347 347.04237 349.6127 352.18305 357.80195 361.9165 369.27888 372.706 378.73338 385.4382 389.0347 395.1916 400.8105 403.38084 410.08567 415.67469 420.44679 425.21888 427.7892 433.9162 440.0731 445.692 454.40925 459.18135 465.33824 471.3656 477.4926 482.2647">sellers,andmanagerscanaddorremoveproductsandsellersfortheirassignedshops.</tspan></text>
<text xml:space="preserve" transform="matrix(1 0 -0 1 0 792)" font-size="9.9626" font-family="NotoSans"><tspan y="-48.34299" x="65.758029">*</tspan></text>
<text xml:space="preserve" transform="matrix(1 0 -0 1 0 792)" font-size="9.9626" font-family="NotoSans"><tspan y="-49.35899" x="76.22903 81.698497 87.3174 89.88775 92.4581 98.077 102.19156 109.553928 114.335979 119.924999 128.67215 133.44423 139.06314 141.6335 146.79413 152.92113 156.83643 162.8638 168.9908 175.14769 179.92974 183.52623 190.88858 194.31572 198.23102 204.25839 216.1637 219.7602 225.91709 231.536 234.10636 240.81118 246.40019 251.17227 255.94435 258.5147 264.64173 270.7986 276.4175 285.13478 289.90687 296.06376 302.09114 310.8084 316.39744 322.55433 331.2716 337.39863 341.51319 344.08354 350.24043 356.4272 362.5542 365.12455 367.6949 370.26524 377.6276 383.7845 388.55659 391.12693 397.2838 406.0011 414.1804 417.7769 423.93379 429.55268 433.66725 442.98228 448.5713 453.7319 459.8589 463.97346 466.5438 472.70069 476.29719 481.91609 484.4366 490.12528 495.59477 501.75166 507.77903 516.4963 522.32437 530.15499 536.3118 541.9307 546.0453 553.40768 558.99667 562.9119">Sellerscansellproductsfromtheirassignedshopandprintbillsusingathermalprinter.Shopownersare</tspan><tspan y="-37.40399" x="76.22903 80.14433 85.76324 91.890239 98.04712 100.61747 104.532779 110.15168 118.70956 122.30605 130.75434 136.88134 142.47035 149.98217 158.00206 161.00081 163.99954 169.07051 174.68943 183.23734 188.82636 198.14139 204.16876 210.32566 216.48255 222.50992 225.93706 231.96443 238.50986 246.51979 249.51854 252.51728 257.58824 263.20713 271.76499 277.92189 284.07878 293.3938 299.5208 305.1397 311.68516 317.71253 323.57054 328.34263 334.4995 340.5269 346.65388 351.42597 356.5567 364.3873 366.95765 370.55415 379.13194 382.72843 388.8853 396.9351 402.5241 408.65113 411.22148 413.7918 416.36216 419.95866 427.47047 431.06697 439.51524 444.57624 447.14659 452.56623 462.8277 466.4242 472.5811 480.63087 483.2012 488.79023 493.56233 499.5797 505.70674 511.29576 516.37667 525.69168 531.31057 537.4674 543.49478 549.62179 555.21078 558.80728 564.42617">requiredtopayafixedamountforafixednumberofshops,withtheabilitytoviewthelastpaymentdate.</tspan></text>
</svg>
